<svg width="960" height="160" viewBox="0 0 960 160" fill="none" xmlns="http://www.w3.org/2000/svg">
<path d="M103.929 80.9563C99.223 74.6389 76.7421 67.7065 76.7421 67.7065L79.7601 82.5805C79.7601 82.5805 88.3084 92.3611 95.4832 94.7875C99.6976 96.2128 104.26 95.1046 106.275 91.1383C108.123 87.5004 108.635 87.2737 103.929 80.9563Z" fill="#D9D9D9"/>
<path d="M103.929 80.9563L102.578 81.9627L102.578 81.9627L103.929 80.9563ZM95.4832 94.7875L94.9435 96.3834L94.9435 96.3834L95.4832 94.7875ZM81.0286 81.4719C80.4163 80.7714 79.352 80.6998 78.6515 81.3121C77.951 81.9244 77.8794 82.9886 78.4917 83.6892L81.0286 81.4719ZM106.275 91.1383L107.777 91.9014L107.777 91.9014L106.275 91.1383ZM76.7421 67.7065C76.2457 69.3163 76.2456 69.3163 76.2456 69.3163C76.2458 69.3163 76.2459 69.3163 76.2461 69.3164C76.2466 69.3166 76.2474 69.3168 76.2485 69.3172C76.2509 69.3179 76.2545 69.319 76.2595 69.3206C76.2695 69.3237 76.2848 69.3284 76.3052 69.3348C76.3462 69.3476 76.4078 69.3668 76.4888 69.3924C76.6509 69.4436 76.8908 69.5199 77.1986 69.6195C77.8143 69.8187 78.7014 70.1111 79.7814 70.4818C81.9432 71.2237 84.8696 72.2768 87.9366 73.5231C91.0097 74.7718 94.1917 76.2016 96.8776 77.6935C99.6234 79.2188 101.632 80.6924 102.578 81.9627L103.929 80.9563L105.28 79.9499C103.873 78.0615 101.306 76.2995 98.5137 74.7482C95.6609 73.1635 92.3403 71.6757 89.205 70.4016C86.0636 69.1251 83.0756 68.0502 80.8752 67.295C79.7741 66.917 78.8681 66.6184 78.236 66.4139C77.9199 66.3116 77.6722 66.2328 77.5027 66.1793C77.4179 66.1525 77.3527 66.1321 77.3083 66.1183C77.2861 66.1114 77.2691 66.1061 77.2574 66.1024C77.2516 66.1006 77.247 66.0992 77.2439 66.0983C77.2423 66.0978 77.2411 66.0974 77.2402 66.0971C77.2398 66.097 77.2393 66.0969 77.2391 66.0968C77.2388 66.0967 77.2386 66.0966 76.7421 67.7065ZM95.4832 94.7875L96.0229 93.1917C92.7895 92.0982 89.0782 89.2578 86.0622 86.5256C84.582 85.1848 83.3185 83.9158 82.4252 82.9821C81.9791 82.5158 81.6267 82.1345 81.3873 81.8715C81.2676 81.7401 81.1762 81.6382 81.1156 81.5702C81.0853 81.5362 81.0627 81.5107 81.0481 81.4941C81.0408 81.4858 81.0355 81.4798 81.0322 81.4761C81.0306 81.4742 81.0295 81.4729 81.0289 81.4722C81.0286 81.4719 81.0284 81.4717 81.0283 81.4716C81.0283 81.4716 81.0284 81.4717 81.0284 81.4717C81.0285 81.4718 81.0286 81.4719 79.7601 82.5805C78.4917 83.6892 78.4919 83.6894 78.4921 83.6897C78.4922 83.6898 78.4925 83.6901 78.4927 83.6904C78.4932 83.6909 78.4938 83.6916 78.4945 83.6924C78.496 83.6941 78.498 83.6964 78.5005 83.6992C78.5055 83.7049 78.5126 83.7129 78.5216 83.7232C78.5398 83.7438 78.5661 83.7735 78.6001 83.8117C78.6683 83.8882 78.7676 83.9989 78.8957 84.1396C79.1518 84.4209 79.5232 84.8227 79.9906 85.3113C80.9244 86.2872 82.2463 87.6151 83.8001 89.0226C86.8519 91.7873 91.0021 95.0505 94.9435 96.3834L95.4832 94.7875ZM103.929 80.9563L102.578 81.9627C103.752 83.5392 104.56 84.6817 105.099 85.5731C105.643 86.472 105.839 86.9964 105.901 87.3445C105.951 87.6291 105.929 87.8873 105.77 88.315C105.58 88.8274 105.274 89.3893 104.773 90.3753L106.275 91.1383L107.777 91.9014C108.2 91.0684 108.651 90.2377 108.929 89.4871C109.239 88.6517 109.398 87.7762 109.219 86.7597C109.051 85.8067 108.608 84.8625 107.982 83.8285C107.351 82.7869 106.458 81.5321 105.28 79.9499L103.929 80.9563ZM106.275 91.1383L104.773 90.3753C103.248 93.3771 99.7006 94.4355 96.0229 93.1917L95.4832 94.7875L94.9435 96.3834C99.6945 97.9901 105.272 96.8321 107.777 91.9014L106.275 91.1383Z" fill="black"/>
<path d="M94.4883 93.3106C95.4384 85.4907 83.9424 64.9653 83.9424 64.9653L75.8684 77.8167C75.8684 77.8167 75.3119 90.7945 78.8333 97.5001C80.9017 101.439 84.9694 103.783 89.1641 102.301C93.0116 100.942 93.5383 101.131 94.4883 93.3106Z" fill="#D9D9D9"/>
<path d="M83.1211 65.7876L109.255 123.532C109.825 124.792 109.486 126.278 108.426 127.166L78.4531 152.265C77.3485 153.19 75.7507 153.226 74.6055 152.352L37.2031 123.806C36.0139 122.898 35.6479 121.267 36.3359 119.939L64.9717 64.6489L83.1211 65.7876Z" fill="#D9D9D9" stroke="black" stroke-width="3.36928"/>
<circle cx="85.9003" cy="105.002" r="3.17763" fill="#C6C2C2"/>
<circle cx="90.5175" cy="94.8339" r="3.17763" fill="#C6C2C2"/>
<path d="M78.467 96.7223C82.4498 89.9259 80.0689 66.5212 80.0689 66.5212L67.5485 75.0994C67.5485 75.0994 61.8747 86.7845 62.4375 94.3375C62.7682 98.7741 65.5673 102.543 70.0054 102.852C74.0761 103.136 74.4843 103.519 78.467 96.7223Z" fill="#D9D9D9"/>
<path d="M78.467 96.7223L77.0136 95.8706L77.0136 95.8706L78.467 96.7223ZM62.4375 94.3375L60.7576 94.4627L60.7576 94.4627L62.4375 94.3375ZM69.064 75.8353C69.4703 74.9983 69.1213 73.9904 68.2844 73.584C67.4474 73.1776 66.4395 73.5267 66.0331 74.3636L69.064 75.8353ZM70.0054 102.852L69.8883 104.533L69.8883 104.533L70.0054 102.852ZM80.0689 66.5212C78.3929 66.6917 78.3929 66.6916 78.3929 66.6916C78.3929 66.6918 78.393 66.6919 78.393 66.6921C78.393 66.6926 78.3931 66.6935 78.3932 66.6947C78.3935 66.6971 78.3939 66.7009 78.3944 66.7061C78.3954 66.7165 78.397 66.7324 78.3991 66.7537C78.4033 66.7964 78.4096 66.8606 78.4176 66.9453C78.4337 67.1145 78.457 67.3651 78.4853 67.6874C78.5418 68.3321 78.6185 69.2629 78.6982 70.402C78.8577 72.682 79.029 75.7873 79.0771 79.0976C79.1253 82.4144 79.0492 85.9019 78.7225 88.957C78.3885 92.0802 77.8144 94.504 77.0136 95.8706L78.467 96.7223L79.9205 97.5741C81.1111 95.5424 81.7329 92.492 82.0727 89.3153C82.4197 86.0705 82.4952 82.4325 82.446 79.0486C82.3967 75.6581 82.2217 72.4876 82.0592 70.1668C81.978 69.0055 81.8997 68.0547 81.8416 67.3929C81.8126 67.0619 81.7886 66.8031 81.7718 66.6262C81.7633 66.5377 81.7567 66.4697 81.7522 66.4234C81.7499 66.4002 81.7481 66.3825 81.7469 66.3703C81.7463 66.3642 81.7458 66.3596 81.7455 66.3563C81.7453 66.3546 81.7452 66.3534 81.7451 66.3524C81.745 66.352 81.745 66.3515 81.745 66.3513C81.7449 66.351 81.7449 66.3507 80.0689 66.5212ZM62.4375 94.3375L64.1175 94.2123C63.8639 90.8085 65.0325 86.2834 66.3726 82.4409C67.0303 80.5551 67.7063 78.8968 68.2178 77.7102C68.4733 77.1176 68.687 76.6444 68.8358 76.3214C68.9102 76.1599 68.9684 76.0361 69.0074 75.9538C69.0269 75.9126 69.0416 75.8818 69.0511 75.8619C69.0559 75.852 69.0594 75.8447 69.0615 75.8403C69.0626 75.838 69.0634 75.8365 69.0638 75.8357C69.064 75.8353 69.0641 75.835 69.0641 75.835C69.0641 75.8349 69.0641 75.835 69.0641 75.835C69.064 75.8351 69.064 75.8353 67.5485 75.0994C66.0331 74.3636 66.033 74.3639 66.0328 74.3642C66.0327 74.3643 66.0326 74.3647 66.0324 74.365C66.0321 74.3657 66.0317 74.3665 66.0312 74.3675C66.0302 74.3695 66.0289 74.3722 66.0273 74.3756C66.024 74.3824 66.0193 74.3921 66.0134 74.4045C66.0015 74.4292 65.9844 74.465 65.9625 74.5113C65.9187 74.6038 65.8555 74.7384 65.7758 74.9112C65.6166 75.2567 65.3914 75.7555 65.1238 76.3763C64.589 77.6167 63.8817 79.3517 63.1913 81.3313C61.8352 85.2196 60.4484 90.3135 60.7576 94.4627L62.4375 94.3375ZM78.467 96.7223L77.0136 95.8706C76.0197 97.5666 75.2824 98.7559 74.672 99.6002C74.0563 100.452 73.6497 100.836 73.3531 101.029C73.1106 101.186 72.8644 101.266 72.4087 101.287C71.8626 101.312 71.2257 101.249 70.1225 101.172L70.0054 102.852L69.8883 104.533C70.8204 104.598 71.761 104.689 72.5609 104.653C73.451 104.613 74.319 104.417 75.1853 103.856C75.9974 103.33 76.6941 102.554 77.4022 101.574C78.1157 100.588 78.923 99.2762 79.9205 97.5741L78.467 96.7223ZM70.0054 102.852L70.1225 101.172C66.7636 100.938 64.406 98.084 64.1175 94.2123L62.4375 94.3375L60.7576 94.4627C61.1303 99.4642 64.3711 104.149 69.8883 104.533L70.0054 102.852Z" fill="black"/>
<mask id="path-9-inside-1_94_1127" fill="white">
<path d="M76.6855 8.61523C92.5024 8.61523 105.324 22.1922 105.324 38.9395C105.324 40.8413 105.157 42.702 104.841 44.5068C105.744 46.5018 107.049 48.1024 108.939 48.5205C111.323 49.0475 114.326 46.9754 116.864 44.5977C119.489 42.1388 124.015 42.5772 125.58 45.8154L126.719 48.1719C127.422 49.6274 127.341 51.3376 126.406 52.6562C124.128 55.8688 119.319 61.9356 113.229 65.6006C107.976 68.762 97.6015 67.246 90.3457 65.5967C86.2855 67.9341 81.6321 69.2627 76.6855 69.2627C60.8689 69.2627 48.0471 55.6865 48.0469 38.9395C48.0469 22.1923 60.8688 8.61528 76.6855 8.61523Z"/>
</mask>
<path d="M76.6855 8.61523C92.5024 8.61523 105.324 22.1922 105.324 38.9395C105.324 40.8413 105.157 42.702 104.841 44.5068C105.744 46.5018 107.049 48.1024 108.939 48.5205C111.323 49.0475 114.326 46.9754 116.864 44.5977C119.489 42.1388 124.015 42.5772 125.58 45.8154L126.719 48.1719C127.422 49.6274 127.341 51.3376 126.406 52.6562C124.128 55.8688 119.319 61.9356 113.229 65.6006C107.976 68.762 97.6015 67.246 90.3457 65.5967C86.2855 67.9341 81.6321 69.2627 76.6855 69.2627C60.8689 69.2627 48.0471 55.6865 48.0469 38.9395C48.0469 22.1923 60.8688 8.61528 76.6855 8.61523Z" fill="#D9D9D9"/>
<path d="M76.6855 8.61523L76.6855 5.24595L76.6855 5.24595L76.6855 8.61523ZM105.324 38.9395L108.694 38.9395V38.9395H105.324ZM104.841 44.5068L101.522 43.9251L101.343 44.9489L101.771 45.8959L104.841 44.5068ZM108.939 48.5205L108.212 51.8103L108.212 51.8103L108.939 48.5205ZM116.864 44.5977L119.168 47.0565L119.168 47.0565L116.864 44.5977ZM125.58 45.8154L128.614 44.3495L128.614 44.3495L125.58 45.8154ZM126.719 48.1719L129.752 46.7061L129.752 46.706L126.719 48.1719ZM126.406 52.6562L129.154 54.6054L129.155 54.6053L126.406 52.6562ZM113.229 65.6006L114.967 68.4874L114.967 68.4874L113.229 65.6006ZM90.3457 65.5967L91.0925 62.3112L89.8071 62.019L88.6647 62.6767L90.3457 65.5967ZM76.6855 69.2627L76.6855 72.632H76.6855V69.2627ZM48.0469 38.9395L44.6776 38.9395L44.6776 38.9395L48.0469 38.9395ZM76.6855 8.61523V11.9845C90.4626 11.9845 101.955 23.8689 101.955 38.9395H105.324H108.694C108.694 20.5156 94.5422 5.24595 76.6855 5.24595V8.61523ZM105.324 38.9395L101.955 38.9394C101.955 40.6437 101.805 42.3098 101.522 43.9251L104.841 44.5068L108.16 45.0885C108.509 43.0942 108.693 41.0389 108.694 38.9395L105.324 38.9395ZM104.841 44.5068L101.771 45.8959C102.827 48.2289 104.758 51.0465 108.212 51.8103L108.939 48.5205L109.667 45.2307C109.34 45.1584 108.66 44.7747 107.91 43.1178L104.841 44.5068ZM108.939 48.5205L108.212 51.8103C110.583 52.3346 112.822 51.5032 114.464 50.6024C116.18 49.6613 117.8 48.3383 119.168 47.0565L116.864 44.5977L114.561 42.1388C113.391 43.2347 112.24 44.1367 111.223 44.6944C110.723 44.9689 110.329 45.1189 110.041 45.1878C109.76 45.2551 109.655 45.2281 109.667 45.2307L108.939 48.5205ZM116.864 44.5977L119.168 47.0565C119.703 46.5551 120.475 46.3225 121.201 46.4134C121.898 46.5005 122.333 46.8401 122.546 47.2814L125.58 45.8154L128.614 44.3495C125.868 38.6678 118.508 38.4412 114.561 42.1388L116.864 44.5977ZM125.58 45.8154L122.546 47.2813L123.685 49.6378L126.719 48.1719L129.752 46.706L128.614 44.3495L125.58 45.8154ZM126.719 48.1719L123.685 49.6377C123.9 50.0835 123.824 50.4736 123.658 50.7072L126.406 52.6562L129.155 54.6053C130.859 52.2017 130.944 49.1714 129.752 46.7061L126.719 48.1719ZM126.406 52.6562L123.658 50.7071C121.448 53.823 116.967 59.4186 111.492 62.7138L113.229 65.6006L114.967 68.4874C121.671 64.4526 126.808 57.9145 129.154 54.6054L126.406 52.6562ZM113.229 65.6006L111.492 62.7138C109.763 63.7541 106.716 64.2208 102.692 64.0369C98.8169 63.8598 94.6266 63.1145 91.0925 62.3112L90.3457 65.5967L89.5989 68.8822C93.3206 69.7281 97.9457 70.5655 102.385 70.7684C106.676 70.9645 111.442 70.6085 114.967 68.4874L113.229 65.6006ZM90.3457 65.5967L88.6647 62.6767C85.0952 64.7317 81.0188 65.8934 76.6855 65.8934V69.2627V72.632C82.2455 72.632 87.4759 71.1366 92.0267 68.5166L90.3457 65.5967ZM76.6855 69.2627L76.6856 65.8934C62.9086 65.8934 51.4164 54.0097 51.4162 38.9394L48.0469 38.9395L44.6776 38.9395C44.6778 57.3632 58.8292 72.6319 76.6855 72.632L76.6855 69.2627ZM48.0469 38.9395H51.4162C51.4162 23.8689 62.9085 11.9846 76.6856 11.9845L76.6855 8.61523L76.6855 5.24595C58.829 5.246 44.6776 20.5156 44.6776 38.9395H48.0469Z" fill="black" mask="url(#path-9-inside-1_94_1127)"/>
<path d="M43.6543 30.9512L43.6445 30.8594C42.6875 22.0924 44.5582 15.4806 47.3789 11.1133C50.2381 6.6864 53.9634 4.68457 56.7461 4.68457C59.4885 4.68467 62.8803 6.64299 64.9102 10.9307C66.9213 15.1789 67.5559 21.718 64.5273 30.4932C62.9406 35.0907 61.7275 39.4743 60.6523 43.3818C59.5689 47.3192 58.6391 50.7176 57.6045 53.4658C56.5576 56.2468 55.4943 58.0968 54.2891 59.1289C53.2168 60.0469 51.897 60.4345 49.8516 59.915L49.6475 59.8633H49.4375C45.8658 59.8633 44.0671 58.9566 43.0947 57.793C42.0692 56.5656 41.6149 54.6547 41.6387 51.8877C41.6623 49.1417 42.1444 45.9261 42.6494 42.3174C43.1465 38.7649 43.6543 34.8925 43.6543 31.043V30.9512Z" fill="#D9D9D9" stroke="black" stroke-width="3.36928"/>
<ellipse cx="87.3557" cy="41.1853" rx="4.49238" ry="5.61547" fill="black"/>
<rect x="86.3828" y="38.9072" width="1.27105" height="1.58882" rx="0.635526" fill="white"/>
<path d="M83.3249 60.5466C83.3249 60.5466 84.4756 62.4861 85.7112 62.984C87.357 63.6473 90.1606 63.6473 90.1606 63.6473" stroke="black" stroke-width="3.36928" stroke-linecap="round"/>
<circle cx="44.4354" cy="118.349" r="3.17763" fill="#C6C2C2"/>
<circle cx="54.4511" cy="127.405" r="3.17763" fill="#C6C2C2"/>
<circle cx="70.9706" cy="127.087" r="3.17763" fill="#C6C2C2"/>
<circle cx="85.744" cy="128.993" r="3.17763" fill="#C6C2C2"/>
<circle cx="78.9159" cy="140.91" r="3.17763" fill="#C6C2C2"/>
<circle cx="75.5722" cy="114.058" r="3.17763" fill="#C6C2C2"/>
<circle cx="61.912" cy="117.078" r="3.17763" fill="#C6C2C2"/>
<circle cx="57.4667" cy="103.572" r="3.17763" fill="#C6C2C2"/>
<circle cx="57.3065" cy="90.0673" r="3.17763" fill="#C6C2C2"/>
<circle cx="91.1464" cy="116.6" r="3.17763" fill="#C6C2C2"/>
<circle cx="100.361" cy="121.526" r="3.17763" fill="#C6C2C2"/>
<path d="M254.488 94.3087C255.438 86.4889 243.942 65.9639 243.942 65.9639L235.868 78.8151C235.868 78.8151 235.312 91.7926 238.833 98.4981C240.902 102.437 244.969 104.781 249.164 103.299C253.011 101.94 253.538 102.128 254.488 94.3087Z" fill="#D9D9D9"/>
<path d="M243.12 66.7866L269.254 124.53C269.824 125.79 269.485 127.275 268.425 128.163L238.453 153.262C237.348 154.187 235.75 154.223 234.604 153.349L197.203 124.804C196.014 123.896 195.648 122.266 196.336 120.937L224.972 65.6479L243.12 66.7866Z" fill="#D9D9D9" stroke="black" stroke-width="3.36922"/>
<circle cx="245.9" cy="106" r="3.17757" fill="#C6C2C2"/>
<circle cx="250.517" cy="95.8324" r="3.17757" fill="#C6C2C2"/>
<path d="M260.877 87.2852C257.4 80.2169 236.557 69.3088 236.557 69.3088L236.817 84.4834C236.817 84.4834 243.442 95.6563 250.056 99.348C253.94 101.516 258.628 101.257 261.331 97.7239C263.81 94.4832 264.355 94.3534 260.877 87.2852Z" fill="#D9D9D9"/>
<path d="M260.877 87.2852L259.366 88.0288L259.366 88.0288L260.877 87.2852ZM250.056 99.348L250.877 97.8771L250.877 97.8771L250.056 99.348ZM238.266 83.6242C237.792 82.8239 236.758 82.5599 235.958 83.0344C235.158 83.5089 234.894 84.5424 235.368 85.3426L238.266 83.6242ZM261.331 97.7239L259.993 96.7003L259.993 96.7003L261.331 97.7239ZM236.557 69.3088C235.776 70.8013 235.776 70.8013 235.776 70.8013C235.776 70.8014 235.776 70.8014 235.776 70.8015C235.776 70.8018 235.777 70.8021 235.778 70.8027C235.78 70.8038 235.784 70.8056 235.788 70.808C235.798 70.8129 235.812 70.8203 235.831 70.8303C235.869 70.8503 235.926 70.8805 236.001 70.9204C236.151 71.0002 236.373 71.1189 236.657 71.2729C237.227 71.5809 238.046 72.0298 239.04 72.5908C241.031 73.7139 243.716 75.2819 246.505 77.0656C249.3 78.8528 252.168 80.8378 254.538 82.7936C256.96 84.7931 258.666 86.6076 259.366 88.0288L260.877 87.2852L262.389 86.5415C261.349 84.4287 259.146 82.229 256.683 80.1953C254.166 78.1179 251.172 76.0506 248.321 74.2272C245.464 72.4003 242.722 70.7995 240.696 69.6564C239.682 69.0844 238.845 68.6258 238.261 68.3097C237.969 68.1516 237.739 68.029 237.583 67.9456C237.504 67.9038 237.444 67.8719 237.403 67.8502C237.382 67.8393 237.366 67.831 237.355 67.8254C237.35 67.8225 237.346 67.8203 237.343 67.8188C237.341 67.818 237.34 67.8174 237.339 67.817C237.339 67.8168 237.339 67.8166 237.338 67.8165C237.338 67.8163 237.338 67.8162 236.557 69.3088ZM250.056 99.348L250.877 97.8771C247.896 96.2134 244.764 92.745 242.296 89.5095C241.084 87.9217 240.073 86.444 239.365 85.3633C239.011 84.8236 238.734 84.3846 238.546 84.0824C238.452 83.9314 238.381 83.8146 238.334 83.7367C238.31 83.6978 238.293 83.6685 238.281 83.6496C238.276 83.6401 238.272 83.6332 238.269 83.629C238.268 83.6268 238.267 83.6254 238.266 83.6246C238.266 83.6242 238.266 83.6239 238.266 83.6239C238.266 83.6238 238.266 83.6239 238.266 83.6239C238.266 83.624 238.266 83.6242 236.817 84.4834C235.368 85.3426 235.368 85.3429 235.368 85.3432C235.369 85.3433 235.369 85.3437 235.369 85.344C235.369 85.3446 235.37 85.3454 235.37 85.3464C235.371 85.3483 235.373 85.3509 235.375 85.3541C235.379 85.3606 235.384 85.3698 235.391 85.3816C235.405 85.4052 235.426 85.4391 235.452 85.4829C235.506 85.5705 235.583 85.6974 235.683 85.859C235.884 86.1823 236.176 86.645 236.547 87.2104C237.287 88.34 238.345 89.8863 239.617 91.5531C242.115 94.827 245.601 98.7909 249.234 100.819L250.056 99.348ZM260.877 87.2852L259.366 88.0288C260.233 89.7927 260.82 91.0632 261.188 92.0378C261.559 93.0207 261.656 93.572 261.653 93.9254C261.651 94.2144 261.583 94.4643 261.349 94.856C261.068 95.3252 260.665 95.822 259.993 96.7003L261.331 97.7239L262.669 98.7476C263.237 98.0055 263.831 97.2708 264.241 96.5834C264.698 95.8184 265.014 94.9865 265.022 93.9543C265.031 92.9867 264.767 91.9777 264.34 90.8471C263.909 89.7081 263.26 88.3118 262.389 86.5415L260.877 87.2852ZM261.331 97.7239L259.993 96.7003C257.947 99.3744 254.267 99.7694 250.877 97.8771L250.056 99.348L249.234 100.819C253.613 103.263 259.308 103.14 262.669 98.7476L261.331 97.7239Z" fill="black"/>
<mask id="path-32-inside-2_94_1127" fill="white">
<path d="M236.689 9.61523C252.506 9.61541 265.327 23.1917 265.327 39.9385C265.327 41.8408 265.159 43.7016 264.843 45.5068C265.746 47.5014 267.051 49.1016 268.941 49.5195C271.325 50.0464 274.327 47.9743 276.865 45.5967C279.49 43.1379 284.016 43.5764 285.581 46.8145L286.72 49.1709C287.423 50.6265 287.342 52.3366 286.407 53.6553C284.129 56.8677 279.32 62.9337 273.23 66.5986C267.978 69.7598 257.604 68.2449 250.349 66.5957C246.289 68.9329 241.636 70.2607 236.689 70.2607C220.873 70.2607 208.051 56.6853 208.051 39.9385C208.051 23.1916 220.873 9.61523 236.689 9.61523Z"/>
</mask>
<path d="M236.689 9.61523C252.506 9.61541 265.327 23.1917 265.327 39.9385C265.327 41.8408 265.159 43.7016 264.843 45.5068C265.746 47.5014 267.051 49.1016 268.941 49.5195C271.325 50.0464 274.327 47.9743 276.865 45.5967C279.49 43.1379 284.016 43.5764 285.581 46.8145L286.72 49.1709C287.423 50.6265 287.342 52.3366 286.407 53.6553C284.129 56.8677 279.32 62.9337 273.23 66.5986C267.978 69.7598 257.604 68.2449 250.349 66.5957C246.289 68.9329 241.636 70.2607 236.689 70.2607C220.873 70.2607 208.051 56.6853 208.051 39.9385C208.051 23.1916 220.873 9.61523 236.689 9.61523Z" fill="#D9D9D9"/>
<path d="M236.689 9.61523L236.689 6.24602H236.689V9.61523ZM265.327 39.9385L268.696 39.9385V39.9385H265.327ZM264.843 45.5068L261.524 44.925L261.345 45.949L261.773 46.8961L264.843 45.5068ZM268.941 49.5195L268.214 52.8093L268.214 52.8093L268.941 49.5195ZM276.865 45.5967L279.169 48.0555L279.169 48.0554L276.865 45.5967ZM285.581 46.8145L288.615 45.3486L288.615 45.3485L285.581 46.8145ZM286.72 49.1709L283.686 50.6368L283.686 50.6368L286.72 49.1709ZM286.407 53.6553L289.155 55.6044L289.155 55.6043L286.407 53.6553ZM273.23 66.5986L274.968 69.4854L274.968 69.4854L273.23 66.5986ZM250.349 66.5957L251.095 63.3103L249.81 63.0181L248.668 63.6758L250.349 66.5957ZM236.689 70.2607L236.689 73.63L236.689 73.63L236.689 70.2607ZM208.051 39.9385L204.682 39.9385L204.682 39.9385L208.051 39.9385ZM236.689 9.61523L236.689 12.9845C250.466 12.9846 261.958 24.8683 261.958 39.9385H265.327H268.696C268.696 21.5151 254.546 6.24621 236.689 6.24602L236.689 9.61523ZM265.327 39.9385L261.958 39.9385C261.958 41.6422 261.808 43.3084 261.524 44.925L264.843 45.5068L268.161 46.0886C268.511 44.0949 268.696 42.0394 268.696 39.9385L265.327 39.9385ZM264.843 45.5068L261.773 46.8961C262.829 49.2293 264.761 52.0457 268.214 52.8093L268.941 49.5195L269.669 46.2298C269.341 46.1574 268.662 45.7736 267.912 44.1176L264.843 45.5068ZM268.941 49.5195L268.214 52.8093C270.585 53.3334 272.824 52.502 274.466 51.6011C276.181 50.6601 277.801 49.3371 279.169 48.0555L276.865 45.5967L274.562 43.1379C273.392 44.2338 272.241 45.1357 271.225 45.6934C270.724 45.968 270.33 46.1179 270.043 46.1868C269.762 46.2542 269.657 46.2271 269.669 46.2297L268.941 49.5195ZM276.865 45.5967L279.169 48.0554C279.704 47.5541 280.476 47.3215 281.202 47.4124C281.899 47.4995 282.334 47.8392 282.547 48.2804L285.581 46.8145L288.615 45.3485C285.869 39.6671 278.509 39.4403 274.562 43.1379L276.865 45.5967ZM285.581 46.8145L282.547 48.2803L283.686 50.6368L286.72 49.1709L289.753 47.705L288.615 45.3486L285.581 46.8145ZM286.72 49.1709L283.686 50.6368C283.902 51.0825 283.825 51.4725 283.659 51.7062L286.407 53.6553L289.155 55.6043C290.86 53.2007 290.945 50.1704 289.753 47.705L286.72 49.1709ZM286.407 53.6553L283.659 51.7061C281.449 54.8218 276.968 60.4167 271.493 63.7119L273.23 66.5986L274.968 69.4854C281.671 65.4508 286.808 58.9136 289.155 55.6044L286.407 53.6553ZM273.23 66.5986L271.493 63.7119C269.764 64.7522 266.718 65.219 262.694 65.0353C258.819 64.8585 254.629 64.1135 251.095 63.3103L250.349 66.5957L249.602 69.8811C253.324 70.727 257.948 71.5642 262.387 71.7668C266.677 71.9626 271.444 71.6062 274.968 69.4854L273.23 66.5986ZM250.349 66.5957L248.668 63.6758C245.099 65.7303 241.023 66.8915 236.689 66.8915L236.689 70.2607L236.689 73.63C242.249 73.6299 247.479 72.1355 252.03 69.5156L250.349 66.5957ZM236.689 70.2607V66.8915C222.912 66.8915 211.42 55.0084 211.42 39.9385L208.051 39.9385L204.682 39.9385C204.682 58.3622 218.834 73.63 236.689 73.63V70.2607ZM208.051 39.9385H211.42C211.42 24.8683 222.913 12.9845 236.689 12.9845V9.61523V6.24602C218.833 6.24602 204.682 21.5148 204.682 39.9385H208.051Z" fill="black" mask="url(#path-32-inside-2_94_1127)"/>
<path d="M203.654 31.9502L203.645 31.8594C202.687 23.0924 204.558 16.4806 207.379 12.1133C210.238 7.68673 213.962 5.68478 216.745 5.68457C219.488 5.68457 222.879 7.64301 224.909 11.9307C226.92 16.1787 227.556 22.7174 224.527 31.4922C222.941 36.0899 221.727 40.4742 220.651 44.3818C219.568 48.3189 218.639 51.7167 217.604 54.4648C216.558 57.2457 215.494 59.0948 214.289 60.127C213.217 61.0452 211.897 61.4336 209.852 60.9141L209.647 60.8623H209.438C205.866 60.8623 204.067 59.9556 203.095 58.792C202.069 57.5647 201.615 55.6537 201.639 52.8867C201.662 50.1407 202.144 46.9251 202.649 43.3164C203.147 39.7639 203.654 35.8915 203.654 32.042V31.9502Z" fill="#D9D9D9" stroke="black" stroke-width="3.36922"/>
<ellipse cx="247.356" cy="42.1847" rx="4.49229" ry="5.61536" fill="black"/>
<rect x="246.387" y="39.9067" width="1.27103" height="1.58878" rx="0.635514" fill="white"/>
<path d="M243.321 61.5451C243.321 61.5451 244.472 63.4846 245.707 63.9825C247.353 64.6457 250.157 64.6457 250.157 64.6457" stroke="black" stroke-width="3.36922" stroke-linecap="round"/>
<circle cx="204.435" cy="119.347" r="3.17757" fill="#C6C2C2"/>
<circle cx="214.447" cy="128.403" r="3.17757" fill="#C6C2C2"/>
<circle cx="230.971" cy="128.084" r="3.17757" fill="#C6C2C2"/>
<circle cx="245.74" cy="129.991" r="3.17757" fill="#C6C2C2"/>
<circle cx="238.92" cy="141.907" r="3.17757" fill="#C6C2C2"/>
<circle cx="235.576" cy="115.056" r="3.17757" fill="#C6C2C2"/>
<circle cx="221.916" cy="118.076" r="3.17757" fill="#C6C2C2"/>
<circle cx="217.471" cy="104.57" r="3.17757" fill="#C6C2C2"/>
<circle cx="217.306" cy="91.0662" r="3.17757" fill="#C6C2C2"/>
<circle cx="251.15" cy="117.598" r="3.17757" fill="#C6C2C2"/>
<circle cx="260.357" cy="122.524" r="3.17757" fill="#C6C2C2"/>
<path d="M376.071 80.9563C380.777 74.6389 403.258 67.7065 403.258 67.7065L400.24 82.5805C400.24 82.5805 391.692 92.3611 384.517 94.7875C380.302 96.2128 375.74 95.1046 373.725 91.1383C371.877 87.5004 371.365 87.2737 376.071 80.9563Z" fill="#D9D9D9"/>
<path d="M376.071 80.9563L377.422 81.9627L377.422 81.9627L376.071 80.9563ZM384.517 94.7875L385.056 96.3834L385.056 96.3834L384.517 94.7875ZM398.971 81.4719C399.584 80.7714 400.648 80.6998 401.348 81.3121C402.049 81.9244 402.121 82.9886 401.508 83.6892L398.971 81.4719ZM373.725 91.1383L372.223 91.9014L372.223 91.9014L373.725 91.1383ZM403.258 67.7065C403.754 69.3163 403.754 69.3163 403.754 69.3163C403.754 69.3163 403.754 69.3163 403.754 69.3164C403.753 69.3166 403.753 69.3168 403.751 69.3172C403.749 69.3179 403.745 69.319 403.741 69.3206C403.731 69.3237 403.715 69.3284 403.695 69.3348C403.654 69.3476 403.592 69.3668 403.511 69.3924C403.349 69.4436 403.109 69.5199 402.801 69.6195C402.186 69.8187 401.299 70.1111 400.219 70.4818C398.057 71.2237 395.13 72.2768 392.063 73.5231C388.99 74.7718 385.808 76.2016 383.122 77.6935C380.377 79.2188 378.368 80.6924 377.422 81.9627L376.071 80.9563L374.72 79.9499C376.127 78.0615 378.694 76.2995 381.486 74.7482C384.339 73.1635 387.66 71.6757 390.795 70.4016C393.936 69.1251 396.924 68.0502 399.125 67.295C400.226 66.917 401.132 66.6184 401.764 66.4139C402.08 66.3116 402.328 66.2328 402.497 66.1793C402.582 66.1525 402.647 66.1321 402.692 66.1183C402.714 66.1114 402.731 66.1061 402.743 66.1024C402.748 66.1006 402.753 66.0992 402.756 66.0983C402.758 66.0978 402.759 66.0974 402.76 66.0971C402.76 66.097 402.761 66.0969 402.761 66.0968C402.761 66.0967 402.761 66.0966 403.258 67.7065ZM384.517 94.7875L383.977 93.1917C387.21 92.0982 390.922 89.2578 393.938 86.5256C395.418 85.1848 396.682 83.9158 397.575 82.9821C398.021 82.5158 398.373 82.1345 398.613 81.8715C398.732 81.7401 398.824 81.6382 398.884 81.5702C398.915 81.5362 398.937 81.5107 398.952 81.4941C398.959 81.4858 398.964 81.4798 398.968 81.4761C398.969 81.4742 398.971 81.4729 398.971 81.4722C398.971 81.4719 398.972 81.4717 398.972 81.4716C398.972 81.4716 398.972 81.4717 398.972 81.4717C398.972 81.4718 398.971 81.4719 400.24 82.5805C401.508 83.6892 401.508 83.6894 401.508 83.6897C401.508 83.6898 401.508 83.6901 401.507 83.6904C401.507 83.6909 401.506 83.6916 401.505 83.6924C401.504 83.6941 401.502 83.6964 401.5 83.6992C401.495 83.7049 401.487 83.7129 401.478 83.7232C401.46 83.7438 401.434 83.7735 401.4 83.8117C401.332 83.8882 401.232 83.9989 401.104 84.1396C400.848 84.4209 400.477 84.8227 400.009 85.3113C399.076 86.2872 397.754 87.6151 396.2 89.0226C393.148 91.7873 388.998 95.0505 385.056 96.3834L384.517 94.7875ZM376.071 80.9563L377.422 81.9627C376.248 83.5392 375.44 84.6817 374.901 85.5731C374.357 86.472 374.161 86.9964 374.099 87.3445C374.049 87.6291 374.071 87.8873 374.23 88.315C374.42 88.8274 374.726 89.3893 375.227 90.3753L373.725 91.1383L372.223 91.9014C371.8 91.0684 371.349 90.2377 371.071 89.4871C370.761 88.6517 370.602 87.7762 370.781 86.7597C370.949 85.8067 371.392 84.8625 372.018 83.8285C372.649 82.7869 373.542 81.5321 374.72 79.9499L376.071 80.9563ZM373.725 91.1383L375.227 90.3753C376.752 93.3771 380.299 94.4355 383.977 93.1917L384.517 94.7875L385.056 96.3834C380.306 97.9901 374.728 96.8321 372.223 91.9014L373.725 91.1383Z" fill="black"/>
<path d="M385.512 93.3106C384.562 85.4907 396.058 64.9653 396.058 64.9653L404.132 77.8167C404.132 77.8167 404.688 90.7945 401.167 97.5001C399.098 101.439 395.031 103.783 390.836 102.301C386.988 100.942 386.462 101.131 385.512 93.3106Z" fill="#D9D9D9"/>
<path d="M396.879 65.7876L370.745 123.532C370.175 124.792 370.514 126.278 371.574 127.166L401.547 152.265C402.651 153.19 404.249 153.226 405.395 152.352L442.797 123.806C443.986 122.898 444.352 121.267 443.664 119.939L415.028 64.6489L396.879 65.7876Z" fill="#D9D9D9" stroke="black" stroke-width="3.36928"/>
<circle cx="3.17763" cy="3.17763" r="3.17763" transform="matrix(-1 0 0 1 397.277 101.824)" fill="#C6C2C2"/>
<circle cx="3.17763" cy="3.17763" r="3.17763" transform="matrix(-1 0 0 1 392.66 91.6562)" fill="#C6C2C2"/>
<path d="M401.533 96.7223C397.55 89.9259 399.931 66.5212 399.931 66.5212L412.451 75.0994C412.451 75.0994 418.125 86.7845 417.562 94.3375C417.232 98.7741 414.433 102.543 409.995 102.852C405.924 103.136 405.516 103.519 401.533 96.7223Z" fill="#D9D9D9"/>
<path d="M401.533 96.7223L402.986 95.8706L402.986 95.8706L401.533 96.7223ZM417.562 94.3375L419.242 94.4627L419.242 94.4627L417.562 94.3375ZM410.936 75.8353C410.53 74.9983 410.879 73.9904 411.716 73.584C412.553 73.1776 413.561 73.5267 413.967 74.3636L410.936 75.8353ZM409.995 102.852L410.112 104.533L410.112 104.533L409.995 102.852ZM399.931 66.5212C401.607 66.6917 401.607 66.6916 401.607 66.6916C401.607 66.6918 401.607 66.6919 401.607 66.6921C401.607 66.6926 401.607 66.6935 401.607 66.6947C401.607 66.6971 401.606 66.7009 401.606 66.7061C401.605 66.7165 401.603 66.7324 401.601 66.7537C401.597 66.7964 401.59 66.8606 401.582 66.9453C401.566 67.1145 401.543 67.3651 401.515 67.6874C401.458 68.3321 401.382 69.2629 401.302 70.402C401.142 72.682 400.971 75.7873 400.923 79.0976C400.875 82.4144 400.951 85.9019 401.278 88.957C401.612 92.0802 402.186 94.504 402.986 95.8706L401.533 96.7223L400.079 97.5741C398.889 95.5424 398.267 92.492 397.927 89.3153C397.58 86.0705 397.505 82.4325 397.554 79.0486C397.603 75.6581 397.778 72.4876 397.941 70.1668C398.022 69.0055 398.1 68.0547 398.158 67.3929C398.187 67.0619 398.211 66.8031 398.228 66.6262C398.237 66.5377 398.243 66.4697 398.248 66.4234C398.25 66.4002 398.252 66.3825 398.253 66.3703C398.254 66.3642 398.254 66.3596 398.255 66.3563C398.255 66.3546 398.255 66.3534 398.255 66.3524C398.255 66.352 398.255 66.3515 398.255 66.3513C398.255 66.351 398.255 66.3507 399.931 66.5212ZM417.562 94.3375L415.882 94.2123C416.136 90.8085 414.967 86.2834 413.627 82.4409C412.97 80.5551 412.294 78.8968 411.782 77.7102C411.527 77.1176 411.313 76.6444 411.164 76.3214C411.09 76.1599 411.032 76.0361 410.993 75.9538C410.973 75.9126 410.958 75.8818 410.949 75.8619C410.944 75.852 410.941 75.8447 410.938 75.8403C410.937 75.838 410.937 75.8365 410.936 75.8357C410.936 75.8353 410.936 75.835 410.936 75.835C410.936 75.8349 410.936 75.835 410.936 75.835C410.936 75.8351 410.936 75.8353 412.451 75.0994C413.967 74.3636 413.967 74.3639 413.967 74.3642C413.967 74.3643 413.967 74.3647 413.968 74.365C413.968 74.3657 413.968 74.3665 413.969 74.3675C413.97 74.3695 413.971 74.3722 413.973 74.3756C413.976 74.3824 413.981 74.3921 413.987 74.4045C413.998 74.4292 414.016 74.465 414.037 74.5113C414.081 74.6038 414.145 74.7384 414.224 74.9112C414.383 75.2567 414.609 75.7555 414.876 76.3763C415.411 77.6167 416.118 79.3517 416.809 81.3313C418.165 85.2196 419.552 90.3135 419.242 94.4627L417.562 94.3375ZM401.533 96.7223L402.986 95.8706C403.98 97.5666 404.718 98.7559 405.328 99.6002C405.944 100.452 406.35 100.836 406.647 101.029C406.889 101.186 407.136 101.266 407.591 101.287C408.137 101.312 408.774 101.249 409.877 101.172L409.995 102.852L410.112 104.533C409.18 104.598 408.239 104.689 407.439 104.653C406.549 104.613 405.681 104.417 404.815 103.856C404.003 103.33 403.306 102.554 402.598 101.574C401.884 100.588 401.077 99.2762 400.079 97.5741L401.533 96.7223ZM409.995 102.852L409.877 101.172C413.236 100.938 415.594 98.084 415.882 94.2123L417.562 94.3375L419.242 94.4627C418.87 99.4642 415.629 104.149 410.112 104.533L409.995 102.852Z" fill="black"/>
<mask id="path-57-inside-3_94_1127" fill="white">
<path d="M403.314 8.61523C387.498 8.61523 374.676 22.1922 374.676 38.9395C374.676 40.8413 374.843 42.702 375.159 44.5068C374.256 46.5018 372.951 48.1024 371.061 48.5205C368.677 49.0475 365.674 46.9754 363.136 44.5977C360.511 42.1388 355.985 42.5772 354.42 45.8154L353.281 48.1719C352.578 49.6274 352.659 51.3376 353.594 52.6562C355.872 55.8688 360.681 61.9356 366.771 65.6006C372.024 68.762 382.398 67.246 389.654 65.5967C393.714 67.9341 398.368 69.2627 403.314 69.2627C419.131 69.2627 431.953 55.6865 431.953 38.9395C431.953 22.1923 419.131 8.61528 403.314 8.61523Z"/>
</mask>
<path d="M403.314 8.61523C387.498 8.61523 374.676 22.1922 374.676 38.9395C374.676 40.8413 374.843 42.702 375.159 44.5068C374.256 46.5018 372.951 48.1024 371.061 48.5205C368.677 49.0475 365.674 46.9754 363.136 44.5977C360.511 42.1388 355.985 42.5772 354.42 45.8154L353.281 48.1719C352.578 49.6274 352.659 51.3376 353.594 52.6562C355.872 55.8688 360.681 61.9356 366.771 65.6006C372.024 68.762 382.398 67.246 389.654 65.5967C393.714 67.9341 398.368 69.2627 403.314 69.2627C419.131 69.2627 431.953 55.6865 431.953 38.9395C431.953 22.1923 419.131 8.61528 403.314 8.61523Z" fill="#D9D9D9"/>
<path d="M403.314 8.61523L403.314 5.24595L403.314 5.24595L403.314 8.61523ZM374.676 38.9395L371.306 38.9395V38.9395H374.676ZM375.159 44.5068L378.478 43.9251L378.657 44.9489L378.229 45.8959L375.159 44.5068ZM371.061 48.5205L371.788 51.8103L371.788 51.8103L371.061 48.5205ZM363.136 44.5977L360.832 47.0565L360.832 47.0565L363.136 44.5977ZM354.42 45.8154L351.386 44.3495L351.386 44.3495L354.42 45.8154ZM353.281 48.1719L350.248 46.7061L350.248 46.706L353.281 48.1719ZM353.594 52.6562L350.846 54.6054L350.845 54.6053L353.594 52.6562ZM366.771 65.6006L365.033 68.4874L365.033 68.4874L366.771 65.6006ZM389.654 65.5967L388.907 62.3112L390.193 62.019L391.335 62.6767L389.654 65.5967ZM403.314 69.2627L403.314 72.632H403.314V69.2627ZM431.953 38.9395L435.322 38.9395L435.322 38.9395L431.953 38.9395ZM403.314 8.61523V11.9845C389.537 11.9845 378.045 23.8689 378.045 38.9395H374.676H371.306C371.306 20.5156 385.458 5.24595 403.314 5.24595V8.61523ZM374.676 38.9395L378.045 38.9394C378.045 40.6437 378.195 42.3098 378.478 43.9251L375.159 44.5068L371.84 45.0885C371.491 43.0942 371.307 41.0389 371.306 38.9395L374.676 38.9395ZM375.159 44.5068L378.229 45.8959C377.173 48.2289 375.242 51.0465 371.788 51.8103L371.061 48.5205L370.333 45.2307C370.66 45.1584 371.34 44.7747 372.09 43.1178L375.159 44.5068ZM371.061 48.5205L371.788 51.8103C369.417 52.3346 367.178 51.5032 365.536 50.6024C363.82 49.6613 362.2 48.3383 360.832 47.0565L363.136 44.5977L365.439 42.1388C366.609 43.2347 367.76 44.1367 368.777 44.6944C369.277 44.9689 369.671 45.1189 369.959 45.1878C370.24 45.2551 370.345 45.2281 370.333 45.2307L371.061 48.5205ZM363.136 44.5977L360.832 47.0565C360.297 46.5551 359.525 46.3225 358.799 46.4134C358.102 46.5005 357.667 46.8401 357.454 47.2814L354.42 45.8154L351.386 44.3495C354.132 38.6678 361.492 38.4412 365.439 42.1388L363.136 44.5977ZM354.42 45.8154L357.454 47.2813L356.315 49.6378L353.281 48.1719L350.248 46.706L351.386 44.3495L354.42 45.8154ZM353.281 48.1719L356.315 49.6377C356.1 50.0835 356.176 50.4736 356.342 50.7072L353.594 52.6562L350.845 54.6053C349.141 52.2017 349.056 49.1714 350.248 46.7061L353.281 48.1719ZM353.594 52.6562L356.342 50.7071C358.552 53.823 363.033 59.4186 368.508 62.7138L366.771 65.6006L365.033 68.4874C358.329 64.4526 353.192 57.9145 350.846 54.6054L353.594 52.6562ZM366.771 65.6006L368.508 62.7138C370.237 63.7541 373.284 64.2208 377.308 64.0369C381.183 63.8598 385.373 63.1145 388.907 62.3112L389.654 65.5967L390.401 68.8822C386.679 69.7281 382.054 70.5655 377.615 70.7684C373.324 70.9645 368.558 70.6085 365.033 68.4874L366.771 65.6006ZM389.654 65.5967L391.335 62.6767C394.905 64.7317 398.981 65.8934 403.314 65.8934V69.2627V72.632C397.755 72.632 392.524 71.1366 387.973 68.5166L389.654 65.5967ZM403.314 69.2627L403.314 65.8934C417.091 65.8934 428.584 54.0097 428.584 38.9394L431.953 38.9395L435.322 38.9395C435.322 57.3632 421.171 72.6319 403.314 72.632L403.314 69.2627ZM431.953 38.9395H428.584C428.584 23.8689 417.091 11.9846 403.314 11.9845L403.314 8.61523L403.314 5.24595C421.171 5.246 435.322 20.5156 435.322 38.9395H431.953Z" fill="black" mask="url(#path-57-inside-3_94_1127)"/>
<path d="M436.346 30.9512L436.355 30.8594C437.313 22.0924 435.442 15.4806 432.621 11.1133C429.762 6.6864 426.037 4.68457 423.254 4.68457C420.511 4.68467 417.12 6.64299 415.09 10.9307C413.079 15.1789 412.444 21.718 415.473 30.4932C417.059 35.0907 418.272 39.4743 419.348 43.3818C420.431 47.3192 421.361 50.7176 422.396 53.4658C423.442 56.2468 424.506 58.0968 425.711 59.1289C426.783 60.0469 428.103 60.4345 430.148 59.915L430.353 59.8633H430.562C434.134 59.8633 435.933 58.9566 436.905 57.793C437.931 56.5656 438.385 54.6547 438.361 51.8877C438.338 49.1417 437.856 45.9261 437.351 42.3174C436.853 38.7649 436.346 34.8925 436.346 31.043V30.9512Z" fill="#D9D9D9" stroke="black" stroke-width="3.36928"/>
<ellipse cx="4.49238" cy="5.61547" rx="4.49238" ry="5.61547" transform="matrix(-1 0 0 1 397.137 35.5698)" fill="black"/>
<rect width="1.27105" height="1.58882" rx="0.635526" transform="matrix(-1 0 0 1 393.617 38.9072)" fill="white"/>
<path d="M396.675 60.5466C396.675 60.5466 395.524 62.4861 394.289 62.984C392.643 63.6473 389.839 63.6473 389.839 63.6473" stroke="black" stroke-width="3.36928" stroke-linecap="round"/>
<circle cx="3.17763" cy="3.17763" r="3.17763" transform="matrix(-1 0 0 1 438.742 115.171)" fill="#C6C2C2"/>
<circle cx="3.17763" cy="3.17763" r="3.17763" transform="matrix(-1 0 0 1 428.727 124.227)" fill="#C6C2C2"/>
<circle cx="3.17763" cy="3.17763" r="3.17763" transform="matrix(-1 0 0 1 412.207 123.909)" fill="#C6C2C2"/>
<circle cx="3.17763" cy="3.17763" r="3.17763" transform="matrix(-1 0 0 1 397.434 125.815)" fill="#C6C2C2"/>
<circle cx="3.17763" cy="3.17763" r="3.17763" transform="matrix(-1 0 0 1 404.262 137.732)" fill="#C6C2C2"/>
<circle cx="3.17763" cy="3.17763" r="3.17763" transform="matrix(-1 0 0 1 407.605 110.881)" fill="#C6C2C2"/>
<circle cx="3.17763" cy="3.17763" r="3.17763" transform="matrix(-1 0 0 1 421.266 113.9)" fill="#C6C2C2"/>
<circle cx="3.17763" cy="3.17763" r="3.17763" transform="matrix(-1 0 0 1 425.711 100.395)" fill="#C6C2C2"/>
<circle cx="3.17763" cy="3.17763" r="3.17763" transform="matrix(-1 0 0 1 425.871 86.8896)" fill="#C6C2C2"/>
<circle cx="3.17763" cy="3.17763" r="3.17763" transform="matrix(-1 0 0 1 392.031 113.422)" fill="#C6C2C2"/>
<circle cx="3.17763" cy="3.17763" r="3.17763" transform="matrix(-1 0 0 1 382.816 118.349)" fill="#C6C2C2"/>
<path d="M545.512 94.3087C544.562 86.4889 556.058 65.9639 556.058 65.9639L564.132 78.8151C564.132 78.8151 564.688 91.7926 561.167 98.4981C559.098 102.437 555.031 104.781 550.836 103.299C546.989 101.94 546.462 102.128 545.512 94.3087Z" fill="#D9D9D9"/>
<path d="M556.88 66.7866L530.746 124.53C530.176 125.79 530.515 127.275 531.575 128.163L561.547 153.262C562.652 154.187 564.25 154.223 565.396 153.349L602.797 124.804C603.986 123.896 604.352 122.266 603.664 120.937L575.028 65.6479L556.88 66.7866Z" fill="#D9D9D9" stroke="black" stroke-width="3.36922"/>
<circle cx="3.17757" cy="3.17757" r="3.17757" transform="matrix(-1 0 0 1 557.277 102.822)" fill="#C6C2C2"/>
<circle cx="3.17757" cy="3.17757" r="3.17757" transform="matrix(-1 0 0 1 552.66 92.6548)" fill="#C6C2C2"/>
<path d="M539.123 87.2852C542.6 80.2169 563.443 69.3088 563.443 69.3088L563.183 84.4834C563.183 84.4834 556.558 95.6563 549.944 99.348C546.06 101.516 541.372 101.257 538.669 97.7239C536.19 94.4832 535.645 94.3534 539.123 87.2852Z" fill="#D9D9D9"/>
<path d="M539.123 87.2852L540.634 88.0288L540.634 88.0288L539.123 87.2852ZM549.944 99.348L549.123 97.8771L549.123 97.8771L549.944 99.348ZM561.734 83.6242C562.208 82.8239 563.242 82.5599 564.042 83.0344C564.842 83.5089 565.106 84.5424 564.632 85.3426L561.734 83.6242ZM538.669 97.7239L540.007 96.7003L540.007 96.7003L538.669 97.7239ZM563.443 69.3088C564.224 70.8013 564.224 70.8013 564.224 70.8013C564.224 70.8014 564.224 70.8014 564.224 70.8015C564.224 70.8018 564.223 70.8021 564.222 70.8027C564.22 70.8038 564.216 70.8056 564.212 70.808C564.202 70.8129 564.188 70.8203 564.169 70.8303C564.131 70.8503 564.074 70.8805 563.999 70.9204C563.849 71.0002 563.627 71.1189 563.343 71.2729C562.773 71.5809 561.954 72.0298 560.96 72.5908C558.969 73.7139 556.284 75.2819 553.495 77.0656C550.7 78.8528 547.832 80.8378 545.462 82.7936C543.04 84.7931 541.334 86.6076 540.634 88.0288L539.123 87.2852L537.611 86.5415C538.651 84.4287 540.854 82.229 543.317 80.1953C545.834 78.1179 548.828 76.0506 551.679 74.2272C554.536 72.4003 557.278 70.7995 559.304 69.6564C560.318 69.0844 561.155 68.6258 561.739 68.3097C562.031 68.1516 562.261 68.029 562.417 67.9456C562.496 67.9038 562.556 67.8719 562.597 67.8502C562.618 67.8393 562.634 67.831 562.645 67.8254C562.65 67.8225 562.654 67.8203 562.657 67.8188C562.659 67.818 562.66 67.8174 562.661 67.817C562.661 67.8168 562.661 67.8166 562.662 67.8165C562.662 67.8163 562.662 67.8162 563.443 69.3088ZM549.944 99.348L549.123 97.8771C552.104 96.2134 555.236 92.745 557.704 89.5095C558.916 87.9217 559.927 86.444 560.635 85.3633C560.989 84.8236 561.266 84.3846 561.454 84.0824C561.548 83.9314 561.619 83.8146 561.666 83.7367C561.69 83.6978 561.707 83.6685 561.719 83.6496C561.724 83.6401 561.728 83.6332 561.731 83.629C561.732 83.6268 561.733 83.6254 561.734 83.6246C561.734 83.6242 561.734 83.6239 561.734 83.6239C561.734 83.6238 561.734 83.6239 561.734 83.6239C561.734 83.624 561.734 83.6242 563.183 84.4834C564.632 85.3426 564.632 85.3429 564.632 85.3432C564.631 85.3433 564.631 85.3437 564.631 85.344C564.631 85.3446 564.63 85.3454 564.63 85.3464C564.629 85.3483 564.627 85.3509 564.625 85.3541C564.621 85.3606 564.616 85.3698 564.609 85.3816C564.595 85.4052 564.574 85.4391 564.548 85.4829C564.494 85.5705 564.417 85.6974 564.317 85.859C564.116 86.1823 563.824 86.645 563.453 87.2104C562.713 88.34 561.655 89.8863 560.383 91.5531C557.885 94.827 554.399 98.7909 550.766 100.819L549.944 99.348ZM539.123 87.2852L540.634 88.0288C539.767 89.7927 539.18 91.0632 538.812 92.0378C538.441 93.0207 538.344 93.572 538.347 93.9254C538.349 94.2144 538.417 94.4643 538.651 94.856C538.932 95.3252 539.335 95.822 540.007 96.7003L538.669 97.7239L537.331 98.7476C536.763 98.0055 536.169 97.2708 535.759 96.5834C535.302 95.8184 534.986 94.9865 534.978 93.9543C534.969 92.9867 535.233 91.9777 535.66 90.8471C536.091 89.7081 536.74 88.3118 537.611 86.5415L539.123 87.2852ZM538.669 97.7239L540.007 96.7003C542.053 99.3744 545.733 99.7694 549.123 97.8771L549.944 99.348L550.766 100.819C546.387 103.263 540.692 103.14 537.331 98.7476L538.669 97.7239Z" fill="black"/>
<mask id="path-80-inside-4_94_1127" fill="white">
<path d="M563.311 9.61523C547.494 9.61541 534.673 23.1917 534.673 39.9385C534.673 41.8408 534.841 43.7016 535.157 45.5068C534.254 47.5014 532.949 49.1016 531.059 49.5195C528.675 50.0464 525.673 47.9743 523.135 45.5967C520.51 43.1379 515.984 43.5764 514.419 46.8145L513.28 49.1709C512.577 50.6265 512.658 52.3366 513.593 53.6553C515.871 56.8677 520.68 62.9337 526.77 66.5986C532.022 69.7598 542.396 68.2449 549.651 66.5957C553.711 68.9329 558.364 70.2607 563.311 70.2607C579.127 70.2607 591.949 56.6853 591.949 39.9385C591.949 23.1916 579.127 9.61523 563.311 9.61523Z"/>
</mask>
<path d="M563.311 9.61523C547.494 9.61541 534.673 23.1917 534.673 39.9385C534.673 41.8408 534.841 43.7016 535.157 45.5068C534.254 47.5014 532.949 49.1016 531.059 49.5195C528.675 50.0464 525.673 47.9743 523.135 45.5967C520.51 43.1379 515.984 43.5764 514.419 46.8145L513.28 49.1709C512.577 50.6265 512.658 52.3366 513.593 53.6553C515.871 56.8677 520.68 62.9337 526.77 66.5986C532.022 69.7598 542.396 68.2449 549.651 66.5957C553.711 68.9329 558.364 70.2607 563.311 70.2607C579.127 70.2607 591.949 56.6853 591.949 39.9385C591.949 23.1916 579.127 9.61523 563.311 9.61523Z" fill="#D9D9D9"/>
<path d="M563.311 9.61523L563.311 6.24602H563.311V9.61523ZM534.673 39.9385L531.304 39.9385V39.9385H534.673ZM535.157 45.5068L538.476 44.925L538.655 45.949L538.227 46.8961L535.157 45.5068ZM531.059 49.5195L531.786 52.8093L531.786 52.8093L531.059 49.5195ZM523.135 45.5967L520.831 48.0555L520.831 48.0554L523.135 45.5967ZM514.419 46.8145L511.385 45.3486L511.385 45.3485L514.419 46.8145ZM513.28 49.1709L516.314 50.6368L516.314 50.6368L513.28 49.1709ZM513.593 53.6553L510.845 55.6044L510.845 55.6043L513.593 53.6553ZM526.77 66.5986L525.032 69.4854L525.032 69.4854L526.77 66.5986ZM549.651 66.5957L548.905 63.3103L550.19 63.0181L551.332 63.6758L549.651 66.5957ZM563.311 70.2607L563.311 73.63L563.311 73.63L563.311 70.2607ZM591.949 39.9385L595.318 39.9385L595.318 39.9385L591.949 39.9385ZM563.311 9.61523L563.311 12.9845C549.534 12.9846 538.042 24.8683 538.042 39.9385H534.673H531.304C531.304 21.5151 545.454 6.24621 563.311 6.24602L563.311 9.61523ZM534.673 39.9385L538.042 39.9385C538.042 41.6422 538.192 43.3084 538.476 44.925L535.157 45.5068L531.839 46.0886C531.489 44.0949 531.304 42.0394 531.304 39.9385L534.673 39.9385ZM535.157 45.5068L538.227 46.8961C537.171 49.2293 535.239 52.0457 531.786 52.8093L531.059 49.5195L530.331 46.2298C530.659 46.1574 531.338 45.7736 532.088 44.1176L535.157 45.5068ZM531.059 49.5195L531.786 52.8093C529.415 53.3334 527.176 52.502 525.534 51.6011C523.819 50.6601 522.199 49.3371 520.831 48.0555L523.135 45.5967L525.438 43.1379C526.608 44.2338 527.759 45.1357 528.775 45.6934C529.276 45.968 529.67 46.1179 529.957 46.1868C530.238 46.2542 530.343 46.2271 530.331 46.2297L531.059 49.5195ZM523.135 45.5967L520.831 48.0554C520.296 47.5541 519.524 47.3215 518.798 47.4124C518.101 47.4995 517.666 47.8392 517.453 48.2804L514.419 46.8145L511.385 45.3485C514.131 39.6671 521.491 39.4403 525.438 43.1379L523.135 45.5967ZM514.419 46.8145L517.453 48.2803L516.314 50.6368L513.28 49.1709L510.247 47.705L511.385 45.3486L514.419 46.8145ZM513.28 49.1709L516.314 50.6368C516.098 51.0825 516.175 51.4725 516.341 51.7062L513.593 53.6553L510.845 55.6043C509.14 53.2007 509.055 50.1704 510.247 47.705L513.28 49.1709ZM513.593 53.6553L516.341 51.7061C518.551 54.8218 523.032 60.4167 528.507 63.7119L526.77 66.5986L525.032 69.4854C518.329 65.4508 513.192 58.9136 510.845 55.6044L513.593 53.6553ZM526.77 66.5986L528.507 63.7119C530.236 64.7522 533.282 65.219 537.306 65.0353C541.181 64.8585 545.371 64.1135 548.905 63.3103L549.651 66.5957L550.398 69.8811C546.676 70.727 542.052 71.5642 537.613 71.7668C533.323 71.9626 528.556 71.6062 525.032 69.4854L526.77 66.5986ZM549.651 66.5957L551.332 63.6758C554.901 65.7303 558.977 66.8915 563.311 66.8915L563.311 70.2607L563.311 73.63C557.751 73.6299 552.521 72.1355 547.97 69.5156L549.651 66.5957ZM563.311 70.2607V66.8915C577.088 66.8915 588.58 55.0084 588.58 39.9385L591.949 39.9385L595.318 39.9385C595.318 58.3622 581.166 73.63 563.311 73.63V70.2607ZM591.949 39.9385H588.58C588.58 24.8683 577.087 12.9845 563.311 12.9845V9.61523V6.24602C581.167 6.24602 595.318 21.5148 595.318 39.9385H591.949Z" fill="black" mask="url(#path-80-inside-4_94_1127)"/>
<path d="M596.346 31.9502L596.355 31.8594C597.313 23.0924 595.442 16.4806 592.621 12.1133C589.762 7.68673 586.038 5.68478 583.255 5.68457C580.512 5.68457 577.121 7.64301 575.091 11.9307C573.08 16.1787 572.444 22.7174 575.473 31.4922C577.059 36.0899 578.273 40.4742 579.349 44.3818C580.432 48.3189 581.361 51.7167 582.396 54.4648C583.442 57.2457 584.506 59.0948 585.711 60.127C586.783 61.0452 588.103 61.4336 590.148 60.9141L590.353 60.8623H590.562C594.134 60.8623 595.933 59.9556 596.905 58.792C597.931 57.5647 598.385 55.6537 598.361 52.8867C598.338 50.1407 597.856 46.9251 597.351 43.3164C596.853 39.7639 596.346 35.8915 596.346 32.042V31.9502Z" fill="#D9D9D9" stroke="black" stroke-width="3.36922"/>
<ellipse cx="4.49229" cy="5.61536" rx="4.49229" ry="5.61536" transform="matrix(-1 0 0 1 557.137 36.5693)" fill="black"/>
<rect width="1.27103" height="1.58878" rx="0.635514" transform="matrix(-1 0 0 1 553.613 39.9067)" fill="white"/>
<path d="M556.679 61.5451C556.679 61.5451 555.528 63.4846 554.293 63.9825C552.647 64.6457 549.843 64.6457 549.843 64.6457" stroke="black" stroke-width="3.36922" stroke-linecap="round"/>
<circle cx="3.17757" cy="3.17757" r="3.17757" transform="matrix(-1 0 0 1 598.742 116.169)" fill="#C6C2C2"/>
<circle cx="3.17757" cy="3.17757" r="3.17757" transform="matrix(-1 0 0 1 588.73 125.225)" fill="#C6C2C2"/>
<circle cx="3.17757" cy="3.17757" r="3.17757" transform="matrix(-1 0 0 1 572.207 124.907)" fill="#C6C2C2"/>
<circle cx="3.17757" cy="3.17757" r="3.17757" transform="matrix(-1 0 0 1 557.438 126.813)" fill="#C6C2C2"/>
<circle cx="3.17757" cy="3.17757" r="3.17757" transform="matrix(-1 0 0 1 564.258 138.729)" fill="#C6C2C2"/>
<circle cx="3.17757" cy="3.17757" r="3.17757" transform="matrix(-1 0 0 1 567.602 111.878)" fill="#C6C2C2"/>
<circle cx="3.17757" cy="3.17757" r="3.17757" transform="matrix(-1 0 0 1 581.262 114.898)" fill="#C6C2C2"/>
<circle cx="3.17757" cy="3.17757" r="3.17757" transform="matrix(-1 0 0 1 585.707 101.393)" fill="#C6C2C2"/>
<circle cx="3.17757" cy="3.17757" r="3.17757" transform="matrix(-1 0 0 1 585.871 87.8887)" fill="#C6C2C2"/>
<circle cx="3.17757" cy="3.17757" r="3.17757" transform="matrix(-1 0 0 1 552.027 114.42)" fill="#C6C2C2"/>
<circle cx="3.17757" cy="3.17757" r="3.17757" transform="matrix(-1 0 0 1 542.82 119.346)" fill="#C6C2C2"/>
<g clip-path="url(#clip0_94_1127)">
<path d="M687.437 9.97412C690.31 10.018 692.817 10.6189 694.56 11.8296C696.213 12.9784 697.322 14.7692 697.322 17.6401C697.322 24.4137 697.315 36.2698 695.172 45.73C694.095 50.4838 692.528 54.3871 690.353 56.7593C689.288 57.9195 688.105 58.6851 686.773 59.0396C685.442 59.394 683.839 59.3706 681.883 58.7544L681.862 58.7476L681.841 58.7417L680.809 58.437C675.81 56.914 673.234 55.3513 671.928 53.854C670.64 52.378 670.426 50.7747 670.672 48.6216C670.713 48.2629 670.851 47.7248 671.082 46.9565C671.296 46.2459 671.589 45.3391 671.84 44.4409C672.335 42.6706 672.825 40.4365 672.409 38.4351C672.001 36.4677 671.264 34.4664 670.603 32.6558C669.92 30.7863 669.325 29.1377 669.057 27.6724C668.54 24.8494 668.564 22.4147 669.161 20.2622C669.754 18.1256 670.938 16.1675 672.898 14.3257C674.047 13.2468 676.181 12.119 678.88 11.2729C681.543 10.4379 684.588 9.93065 687.437 9.97412Z" fill="#D9D9D9" stroke="black" stroke-width="3.2"/>
<rect x="-2.25678" y="0.164167" width="41.6686" height="15.194" rx="7.59701" transform="matrix(-0.756546 -0.653941 -0.653941 0.756546 764.799 83.3855)" fill="#D9D9D9"/>
<rect x="-2.25678" y="0.164167" width="41.6686" height="15.194" rx="7.59701" transform="matrix(-0.756546 -0.653941 -0.653941 0.756546 764.799 83.3855)" stroke="black" stroke-width="3.2"/>
<rect x="-2.25678" y="0.164167" width="41.6686" height="15.194" rx="7.59701" transform="matrix(-0.756546 -0.653941 -0.653941 0.756546 764.799 83.3855)" stroke="black" stroke-width="3.2"/>
<rect x="675.499" y="84.9855" width="41.6686" height="15.194" rx="7.59701" transform="rotate(-40.8394 675.499 84.9855)" fill="#D9D9D9"/>
<rect x="675.499" y="84.9855" width="41.6686" height="15.194" rx="7.59701" transform="rotate(-40.8394 675.499 84.9855)" stroke="black" stroke-width="3.2"/>
<rect x="675.499" y="84.9855" width="41.6686" height="15.194" rx="7.59701" transform="rotate(-40.8394 675.499 84.9855)" stroke="black" stroke-width="3.2"/>
<path d="M709.447 62.9199H732.515C733.698 62.9199 734.786 63.5738 735.341 64.6191L761.622 114.109C762.325 115.434 762.014 117.07 760.874 118.044L724.147 149.405C722.966 150.414 721.23 150.429 720.032 149.439L681.96 117.989C680.8 117.031 680.465 115.394 681.153 114.057L706.603 64.6553C707.151 63.5902 708.249 62.9201 709.447 62.9199Z" fill="#D9D9D9" stroke="black" stroke-width="3.2"/>
<path d="M753.368 8.60254C750.495 8.64644 747.988 9.24732 746.245 10.458C744.592 11.6068 743.482 13.3976 743.482 16.2686C743.482 23.0421 743.489 34.8982 745.633 44.3584C746.71 49.1122 748.276 53.0155 750.452 55.3877C751.516 56.5479 752.7 57.3135 754.031 57.668C755.363 58.0224 756.966 57.999 758.922 57.3828L758.942 57.376L758.964 57.3701L759.996 57.0654C764.994 55.5424 767.571 53.9797 768.877 52.4824C770.165 51.0064 770.378 49.4031 770.133 47.25C770.092 46.8913 769.954 46.3532 769.723 45.585C769.509 44.8743 769.216 43.9676 768.965 43.0693C768.47 41.299 767.98 39.0649 768.396 37.0635C768.804 35.0961 769.541 33.0949 770.202 31.2842C770.885 29.4147 771.48 27.7661 771.748 26.3008C772.265 23.4779 772.241 21.0431 771.644 18.8906C771.051 16.7541 769.866 14.7959 767.906 12.9541C766.758 11.8752 764.623 10.7474 761.925 9.90137C759.261 9.06632 756.216 8.55907 753.368 8.60254Z" fill="#D9D9D9" stroke="black" stroke-width="3.2"/>
<path d="M720.362 9.87988C736.654 9.87988 749.723 22.42 749.723 37.7207C749.722 53.0212 736.654 65.5605 720.362 65.5605C704.071 65.5605 691.002 53.0212 691.002 37.7207C691.002 22.4201 704.07 9.8799 720.362 9.87988Z" fill="#D9D9D9" stroke="black" stroke-width="3.2"/>
<path d="M713.851 63.5024C712.525 60.653 712.215 55.9685 712.143 53.855C712.121 53.2073 712.554 52.6426 713.18 52.4727L728.465 48.3212C729.381 48.0725 730.283 48.762 730.283 49.7109V52.1026C730.283 52.1026 730.631 57.8276 732.397 60.6524C733.538 62.479 734.196 64.1855 736.144 64.4889C737.767 64.7417 738.764 63.9526 740.084 62.8447C741.444 61.7028 742.005 60.6524 742.966 59.3371C743.965 57.9693 744.679 56.6556 746.234 56.816C747.561 56.9528 748.362 57.6452 749.116 58.8986C750.199 60.6988 749.591 62.3739 749.116 64.4889C748.448 67.4685 746.806 69.8468 744.6 71.6138C742.088 73.6253 739.869 74.2116 736.816 74.5734C730.811 75.2852 726.866 74.8547 721.538 71.6138C717.93 69.4188 715.768 67.6226 713.851 63.5024Z" fill="#D9D9D9"/>
<path d="M712.121 52.7603C712.121 52.7603 712.097 59.7352 713.851 63.5024C715.768 67.6226 717.93 69.4188 721.538 71.6138C726.866 74.8547 730.811 75.2852 736.816 74.5734C739.869 74.2116 742.088 73.6253 744.6 71.6138C746.806 69.8468 748.448 67.4685 749.116 64.4889C749.591 62.3739 750.199 60.6988 749.116 58.8986C748.362 57.6452 747.561 56.9528 746.234 56.816C744.679 56.6556 743.965 57.9693 742.966 59.3371C742.005 60.6524 741.444 61.7028 740.084 62.8447C738.764 63.9526 737.767 64.7417 736.144 64.4889C734.196 64.1855 733.538 62.479 732.397 60.6524C730.631 57.8276 730.283 52.1026 730.283 52.1026V47.8276" stroke="black" stroke-width="3.2" stroke-linecap="round"/>
<ellipse cx="706.203" cy="38.6799" rx="4.64" ry="5.28" fill="black"/>
<ellipse cx="705.001" cy="36.68" rx="1.04" ry="1.2" fill="white"/>
<ellipse cx="735.48" cy="39.0002" rx="4.64" ry="5.28" fill="black"/>
<ellipse cx="734.282" cy="37.0003" rx="1.04" ry="1.2" fill="white"/>
<circle cx="719.401" cy="83.5603" r="3.28" fill="#C6C2C2"/>
<circle cx="702.28" cy="90.4402" r="3.28" fill="#C6C2C2"/>
<circle cx="712.042" cy="98.28" r="3.28" fill="#C6C2C2"/>
<circle cx="727.561" cy="94.4402" r="3.28" fill="#C6C2C2"/>
<circle cx="736.522" cy="82.76" r="3.28" fill="#C6C2C2"/>
<circle cx="743.721" cy="96.1999" r="3.28" fill="#C6C2C2"/>
<circle cx="752.362" cy="110.92" r="3.28" fill="#C6C2C2"/>
<circle cx="735.081" cy="107.72" r="3.28" fill="#C6C2C2"/>
<circle cx="741.639" cy="121.8" r="3.28" fill="#C6C2C2"/>
<circle cx="728.202" cy="122.76" r="3.28" fill="#C6C2C2"/>
<circle cx="714.44" cy="123.72" r="3.28" fill="#C6C2C2"/>
<circle cx="704.522" cy="112.68" r="3.28" fill="#C6C2C2"/>
<circle cx="700.202" cy="126.6" r="3.28" fill="#C6C2C2"/>
<circle cx="688.682" cy="116.84" r="3.28" fill="#C6C2C2"/>
<circle cx="695.241" cy="104.52" r="3.28" fill="#C6C2C2"/>
<circle cx="719.721" cy="110.12" r="3.28" fill="#C6C2C2"/>
<circle cx="717.003" cy="136.36" r="3.28" fill="#C6C2C2"/>
<circle cx="732.362" cy="133.8" r="3.28" fill="#C6C2C2"/>
</g>
<g clip-path="url(#clip1_94_1127)">
<path d="M847.155 9.854C850.029 9.89791 852.536 10.4988 854.278 11.7095C855.932 12.8583 857.041 14.6491 857.041 17.52C857.041 24.2936 857.034 36.1497 854.891 45.6099C853.813 50.3637 852.247 54.267 850.071 56.6392C849.007 57.7994 847.823 58.565 846.492 58.9194C845.161 59.2739 843.557 59.2505 841.602 58.6343L841.581 58.6274L841.56 58.6216L840.527 58.3169C835.529 56.7939 832.953 55.2312 831.646 53.7339C830.359 52.2579 830.145 50.6545 830.391 48.5015C830.432 48.1428 830.57 47.6047 830.801 46.8364C831.015 46.1257 831.308 45.219 831.559 44.3208C832.053 42.5505 832.543 40.3164 832.128 38.3149C831.719 36.3476 830.983 34.3463 830.321 32.5356C829.638 30.6662 829.044 29.0175 828.775 27.5522C828.259 24.7293 828.283 22.2946 828.88 20.1421C829.473 18.0055 830.657 16.0474 832.617 14.2056C833.765 13.1266 835.9 11.9989 838.599 11.1528C841.262 10.3178 844.307 9.81053 847.155 9.854Z" fill="#D9D9D9" stroke="black" stroke-width="3.2"/>
<rect x="1.80615" y="-1.36301" width="41.6686" height="15.194" rx="7.59701" transform="matrix(0.990365 0.138482 0.138482 -0.990365 884.437 74.9652)" fill="#D9D9D9"/>
<rect x="1.80615" y="-1.36301" width="41.6686" height="15.194" rx="7.59701" transform="matrix(0.990365 0.138482 0.138482 -0.990365 884.437 74.9652)" stroke="black" stroke-width="3.2"/>
<rect x="1.80615" y="-1.36301" width="41.6686" height="15.194" rx="7.59701" transform="matrix(0.990365 0.138482 0.138482 -0.990365 884.437 74.9652)" stroke="black" stroke-width="3.2"/>
<rect x="833.806" y="67.5736" width="41.6686" height="15.194" rx="7.59701" transform="rotate(-7.95591 833.806 67.5736)" fill="#D9D9D9"/>
<rect x="833.806" y="67.5736" width="41.6686" height="15.194" rx="7.59701" transform="rotate(-7.95591 833.806 67.5736)" stroke="black" stroke-width="3.2"/>
<rect x="833.806" y="67.5736" width="41.6686" height="15.194" rx="7.59701" transform="rotate(-7.95591 833.806 67.5736)" stroke="black" stroke-width="3.2"/>
<path d="M869.166 62.7998H892.233C893.417 62.7998 894.504 63.4537 895.06 64.499L921.341 113.989C922.044 115.314 921.733 116.95 920.593 117.924L883.866 149.285C882.685 150.294 880.949 150.309 879.751 149.319L841.679 117.869C840.519 116.911 840.183 115.274 840.872 113.937L866.321 64.5352C866.87 63.4701 867.968 62.8 869.166 62.7998Z" fill="#D9D9D9" stroke="black" stroke-width="3.2"/>
<path d="M913.087 8.48242C910.214 8.52633 907.707 9.1272 905.964 10.3379C904.311 11.4867 903.201 13.2775 903.201 16.1484C903.201 22.922 903.208 34.7781 905.352 44.2383C906.429 48.9921 907.995 52.8954 910.171 55.2676C911.235 56.4278 912.419 57.1934 913.75 57.5479C915.082 57.9023 916.685 57.8789 918.641 57.2627L918.661 57.2559L918.683 57.25L919.715 56.9453C924.713 55.4223 927.289 53.8596 928.596 52.3623C929.883 50.8863 930.097 49.283 929.852 47.1299C929.811 46.7712 929.672 46.2331 929.441 45.4648C929.228 44.7542 928.935 43.8474 928.684 42.9492C928.189 41.1789 927.699 38.9448 928.114 36.9434C928.523 34.976 929.26 32.9747 929.921 31.1641C930.604 29.2946 931.199 27.646 931.467 26.1807C931.983 23.3577 931.959 20.923 931.362 18.7705C930.77 16.6339 929.585 14.6758 927.625 12.834C926.477 11.7551 924.342 10.6273 921.644 9.78125C918.98 8.9462 915.935 8.43895 913.087 8.48242Z" fill="#D9D9D9" stroke="black" stroke-width="3.2"/>
<path d="M880.081 9.75977C896.373 9.75977 909.441 22.2999 909.441 37.6006C909.441 52.9011 896.373 65.4404 880.081 65.4404C863.789 65.4404 850.721 52.901 850.721 37.6006C850.721 22.2999 863.789 9.75979 880.081 9.75977Z" fill="#D9D9D9" stroke="black" stroke-width="3.2"/>
<path d="M873.569 63.3823C872.243 60.5329 871.934 55.8483 871.862 53.7349C871.84 53.0872 872.273 52.5224 872.899 52.3526L888.184 48.2011C889.1 47.9524 890.001 48.6419 890.001 49.5908V51.9825C890.001 51.9825 890.35 57.7074 892.115 60.5323C893.257 62.3589 893.914 64.0654 895.863 64.3688C897.486 64.6216 898.483 63.8324 899.803 62.7246C901.163 61.5827 901.724 60.5323 902.685 59.217C903.684 57.8492 904.398 56.5355 905.952 56.6958C907.28 56.8327 908.081 57.5251 908.835 58.7785C909.918 60.5787 909.31 62.2538 908.835 64.3688C908.167 67.3483 906.525 69.7267 904.319 71.4937C901.807 73.5052 899.588 74.0915 896.535 74.4533C890.53 75.1651 886.585 74.7345 881.257 71.4937C877.648 69.2987 875.487 67.5025 873.569 63.3823Z" fill="#D9D9D9"/>
<path d="M871.84 52.6401C871.84 52.6401 871.816 59.6151 873.569 63.3823C875.487 67.5025 877.648 69.2987 881.257 71.4937C886.585 74.7345 890.53 75.1651 896.535 74.4533C899.588 74.0915 901.807 73.5052 904.319 71.4937C906.525 69.7267 908.167 67.3483 908.835 64.3688C909.31 62.2538 909.918 60.5787 908.835 58.7785C908.081 57.5251 907.28 56.8327 905.952 56.6958C904.398 56.5355 903.684 57.8492 902.685 59.217C901.724 60.5323 901.163 61.5827 899.803 62.7246C898.483 63.8324 897.486 64.6216 895.863 64.3688C893.914 64.0654 893.257 62.3589 892.115 60.5323C890.35 57.7074 890.001 51.9825 890.001 51.9825V47.7075" stroke="black" stroke-width="3.2" stroke-linecap="round"/>
<ellipse cx="865.921" cy="38.5598" rx="4.64" ry="5.28" fill="black"/>
<ellipse cx="864.72" cy="36.5599" rx="1.04" ry="1.2" fill="white"/>
<ellipse cx="895.199" cy="38.8801" rx="4.64" ry="5.28" fill="black"/>
<ellipse cx="894.001" cy="36.8802" rx="1.04" ry="1.2" fill="white"/>
<circle cx="879.12" cy="83.4402" r="3.28" fill="#C6C2C2"/>
<circle cx="861.999" cy="90.32" r="3.28" fill="#C6C2C2"/>
<circle cx="871.76" cy="98.1599" r="3.28" fill="#C6C2C2"/>
<circle cx="887.28" cy="94.32" r="3.28" fill="#C6C2C2"/>
<circle cx="896.241" cy="82.6399" r="3.28" fill="#C6C2C2"/>
<circle cx="903.44" cy="96.0798" r="3.28" fill="#C6C2C2"/>
<circle cx="912.081" cy="110.8" r="3.28" fill="#C6C2C2"/>
<circle cx="894.8" cy="107.6" r="3.28" fill="#C6C2C2"/>
<circle cx="901.358" cy="121.68" r="3.28" fill="#C6C2C2"/>
<circle cx="887.921" cy="122.64" r="3.28" fill="#C6C2C2"/>
<circle cx="874.159" cy="123.6" r="3.28" fill="#C6C2C2"/>
<circle cx="864.241" cy="112.56" r="3.28" fill="#C6C2C2"/>
<circle cx="859.921" cy="126.48" r="3.28" fill="#C6C2C2"/>
<circle cx="848.401" cy="116.72" r="3.28" fill="#C6C2C2"/>
<circle cx="854.96" cy="104.4" r="3.28" fill="#C6C2C2"/>
<circle cx="879.44" cy="110" r="3.28" fill="#C6C2C2"/>
<circle cx="876.721" cy="136.24" r="3.28" fill="#C6C2C2"/>
<circle cx="892.081" cy="133.68" r="3.28" fill="#C6C2C2"/>
</g>
<defs>
<clipPath id="clip0_94_1127">
<rect width="106.72" height="146.24" fill="white" transform="translate(667 7)"/>
</clipPath>
<clipPath id="clip1_94_1127">
<rect width="106.72" height="146.24" fill="white" transform="translate(826.719 6.87988)"/>
</clipPath>
</defs>
</svg>
