<svg width="640" height="160" viewBox="0 0 640 160" fill="none" xmlns="http://www.w3.org/2000/svg">
<path d="M101.757 81.412C97.5667 75.787 77.5498 69.6144 77.5498 69.6144L80.2371 82.8582C80.2371 82.8582 87.8484 91.5668 94.2368 93.7273C97.9893 94.9963 102.051 94.0096 103.846 90.478C105.491 87.2388 105.947 87.037 101.757 81.412Z" fill="#D9D9D9"/>
<path d="M101.757 81.412L102.324 80.9894L102.324 80.9894L101.757 81.412ZM94.2368 93.7273L94.4634 93.0572L94.2368 93.7273ZM80.7696 82.3927C80.5126 82.0986 80.0657 82.0685 79.7716 82.3256C79.4774 82.5827 79.4474 83.0296 79.7045 83.3237L80.7696 82.3927ZM103.846 90.478L104.476 90.7984L104.476 90.7984L103.846 90.478ZM77.5498 69.6144C77.3414 70.2903 77.3414 70.2903 77.3415 70.2903C77.3416 70.2904 77.3418 70.2904 77.342 70.2905C77.3426 70.2907 77.3434 70.2909 77.3445 70.2913C77.3468 70.292 77.3502 70.293 77.3549 70.2945C77.3641 70.2973 77.3782 70.3017 77.3968 70.3075C77.4341 70.3191 77.4898 70.3366 77.5628 70.3596C77.7089 70.4057 77.9243 70.4742 78.2003 70.5636C78.7524 70.7422 79.5467 71.004 80.5133 71.3358C82.4472 71.9995 85.0674 72.9423 87.8157 74.0591C90.5667 75.1769 93.4325 76.4637 95.8633 77.8139C98.3192 79.1781 100.239 80.5581 101.19 81.8345L101.757 81.412L102.324 80.9894C101.18 79.4534 99.0259 77.9524 96.5502 76.5772C94.0494 75.1881 91.1254 73.8769 88.3483 72.7485C85.5687 71.619 82.9227 70.6671 80.9726 69.9977C79.9971 69.6629 79.1948 69.3985 78.6359 69.2176C78.3564 69.1272 78.1377 69.0576 77.9885 69.0105C77.9139 68.987 77.8567 68.9691 77.818 68.957C77.7986 68.9509 77.7838 68.9464 77.7738 68.9433C77.7689 68.9417 77.765 68.9405 77.7624 68.9397C77.7611 68.9393 77.7601 68.939 77.7594 68.9388C77.7591 68.9387 77.7588 68.9386 77.7586 68.9385C77.7584 68.9385 77.7583 68.9384 77.5498 69.6144ZM94.2368 93.7273L94.4634 93.0572C91.4179 92.0273 88.0101 89.3987 85.3162 86.9584C83.9809 85.7488 82.8421 84.605 82.0373 83.7637C81.635 83.3433 81.3168 82.999 81.0997 82.7605C80.9911 82.6413 80.9079 82.5485 80.8522 82.486C80.8243 82.4547 80.8033 82.431 80.7895 82.4153C80.7826 82.4074 80.7774 82.4016 80.7741 82.3978C80.7724 82.3959 80.7712 82.3946 80.7705 82.3937C80.7701 82.3933 80.7699 82.393 80.7697 82.3928C80.7697 82.3927 80.7696 82.3927 80.7696 82.3927C80.7696 82.3927 80.7696 82.3927 80.2371 82.8582C79.7045 83.3237 79.7046 83.3238 79.7047 83.324C79.7048 83.324 79.7049 83.3242 79.7051 83.3244C79.7054 83.3248 79.7058 83.3253 79.7064 83.3259C79.7075 83.3272 79.7091 83.329 79.7111 83.3313C79.7151 83.3359 79.721 83.3425 79.7287 83.3512C79.744 83.3686 79.7666 83.3941 79.796 83.4271C79.8549 83.4932 79.9414 83.5897 80.0535 83.7128C80.2776 83.959 80.6039 84.3119 81.015 84.7417C81.8369 85.6007 83.0002 86.7692 84.3664 88.0068C87.0753 90.4608 90.6674 93.2668 94.0102 94.3974L94.2368 93.7273ZM101.757 81.412L101.19 81.8345C102.236 83.2396 102.975 84.2833 103.477 85.1123C103.981 85.9445 104.213 86.5102 104.293 86.9625C104.368 87.388 104.317 87.7631 104.14 88.2399C103.95 88.7522 103.643 89.3157 103.215 90.1576L103.846 90.478L104.476 90.7984C104.871 90.0207 105.239 89.3443 105.466 88.732C105.706 88.0841 105.815 87.4498 105.686 86.7169C105.562 86.0107 105.225 85.2687 104.687 84.3798C104.148 83.4877 103.372 82.3969 102.324 80.9894L101.757 81.412ZM103.846 90.478L103.215 90.1576C101.627 93.2843 97.9906 94.2501 94.4634 93.0572L94.2368 93.7273L94.0102 94.3974C97.988 95.7426 102.476 94.7349 104.476 90.7984L103.846 90.478Z" fill="black"/>
<path d="M93.352 92.4122C94.1979 85.4493 83.9619 67.1736 83.9619 67.1736L76.7728 78.6165C76.7728 78.6165 76.2773 90.1718 79.4128 96.1425C81.2545 99.6495 84.8763 101.737 88.6113 100.417C92.0371 99.2071 92.5061 99.3751 93.352 92.4122Z" fill="#D9D9D9"/>
<path d="M83.7549 67.1445L107.221 118.994C107.875 120.44 107.486 122.145 106.27 123.164L79.582 145.513C78.3144 146.574 76.4805 146.616 75.166 145.613L41.8633 120.196C40.4984 119.155 40.0785 117.282 40.8682 115.758L66.6025 66.0684L83.7549 67.1445Z" fill="#D9D9D9" stroke="black" stroke-width="1.41468"/>
<circle cx="85.7044" cy="102.822" r="2.82935" fill="#C6C2C2"/>
<circle cx="89.8137" cy="93.7688" r="2.82935" fill="#C6C2C2"/>
<path d="M79.0843 95.45C82.6306 89.3985 80.5106 68.559 80.5106 68.559L69.3625 76.1971C69.3625 76.1971 64.3105 86.6014 64.8117 93.3266C65.1061 97.2769 67.5985 100.633 71.5501 100.908C75.1746 101.161 75.538 101.502 79.0843 95.45Z" fill="#D9D9D9"/>
<path d="M79.0843 95.45L79.6946 95.8076L79.6946 95.8076L79.0843 95.45ZM64.8117 93.3266L65.5171 93.274L64.8117 93.3266ZM69.9988 76.506C70.1694 76.1546 70.0229 75.7314 69.6714 75.5608C69.32 75.3901 68.8968 75.5367 68.7262 75.8881L69.9988 76.506ZM71.5501 100.908L71.5009 101.614L71.5009 101.614L71.5501 100.908ZM80.5106 68.559C79.8069 68.6306 79.8069 68.6306 79.8069 68.6307C79.8069 68.6308 79.807 68.631 79.807 68.6313C79.807 68.6318 79.8071 68.6327 79.8072 68.6338C79.8075 68.6362 79.8078 68.6398 79.8083 68.6446C79.8093 68.6543 79.8108 68.6689 79.8127 68.6883C79.8165 68.7272 79.8222 68.7853 79.8294 68.8615C79.8439 69.014 79.8648 69.2391 79.8902 69.5281C79.9409 70.1062 80.0095 70.9397 80.0808 71.9591C80.2236 73.9988 80.3769 76.7792 80.4201 79.7455C80.4632 82.7145 80.3956 85.8552 80.0999 88.6201C79.8012 91.4135 79.2788 93.7191 78.474 95.0924L79.0843 95.45L79.6946 95.8076C80.663 94.1551 81.2054 91.5864 81.5066 88.7705C81.8108 85.926 81.8781 82.7222 81.8346 79.7249C81.791 76.7249 81.636 73.9172 81.4921 71.8604C81.4201 70.8316 81.3508 69.9897 81.2994 69.4044C81.2737 69.1118 81.2525 68.8833 81.2377 68.7275C81.2303 68.6497 81.2245 68.59 81.2205 68.5496C81.2185 68.5294 81.217 68.5141 81.216 68.5037C81.2154 68.4984 81.215 68.4945 81.2148 68.4918C81.2146 68.4904 81.2145 68.4894 81.2145 68.4886C81.2144 68.4883 81.2144 68.488 81.2144 68.4878C81.2143 68.4876 81.2143 68.4874 80.5106 68.559ZM64.8117 93.3266L65.5171 93.274C65.2781 90.0679 66.37 85.905 67.567 82.4728C68.1603 80.7716 68.7696 79.277 69.2305 78.2078C69.4608 77.6735 69.6538 77.2462 69.7888 76.9533C69.8563 76.8069 69.9092 76.6941 69.9451 76.6184C69.963 76.5805 69.9767 76.552 69.9857 76.5331C69.9903 76.5237 69.9936 76.5166 69.9958 76.5121C69.9969 76.5098 69.9977 76.5082 69.9982 76.5072C69.9985 76.5067 69.9986 76.5063 69.9987 76.5061C69.9988 76.506 69.9988 76.506 69.9988 76.506C69.9988 76.506 69.9988 76.506 69.3625 76.1971C68.7262 75.8881 68.7261 75.8882 68.726 75.8884C68.726 75.8885 68.7259 75.8887 68.7258 75.8889C68.7256 75.8894 68.7253 75.89 68.7249 75.8907C68.7242 75.8922 68.7231 75.8944 68.7218 75.8971C68.7191 75.9027 68.7153 75.9107 68.7103 75.9211C68.7002 75.942 68.6856 75.9727 68.6666 76.0127C68.6287 76.0927 68.5737 76.21 68.504 76.3612C68.3646 76.6636 68.1668 77.1016 67.9314 77.6478C67.4607 78.7396 66.8383 80.2664 66.2313 82.0069C65.0276 85.4583 63.8441 89.8601 64.1063 93.3792L64.8117 93.3266ZM79.0843 95.45L78.474 95.0924C77.5882 96.604 76.9153 97.6917 76.3475 98.4769C75.7775 99.2652 75.3473 99.6998 74.9619 99.9496C74.5992 100.185 74.2337 100.283 73.7257 100.306C73.1799 100.331 72.5413 100.268 71.5993 100.203L71.5501 100.908L71.5009 101.614C72.3711 101.675 73.1372 101.749 73.7897 101.72C74.48 101.688 75.1066 101.541 75.7312 101.137C76.333 100.747 76.8851 100.148 77.4939 99.3058C78.1049 98.4608 78.8073 97.3218 79.6946 95.8076L79.0843 95.45ZM71.5501 100.908L71.5993 100.203C68.1007 99.9588 65.7938 96.9871 65.5171 93.274L64.8117 93.3266L64.1063 93.3792C64.4184 97.5666 67.0962 101.307 71.5009 101.614L71.5501 100.908Z" fill="black"/>
<mask id="path-9-inside-1_94_1127" fill="white">
<path d="M77.3564 16.9512C91.5761 16.9512 103.103 28.542 103.104 42.8398C103.104 44.8457 102.876 46.7981 102.446 48.6729C103.253 50.5799 104.447 52.1394 106.219 52.5312C108.341 53.0003 111.015 51.1551 113.274 49.0381C115.611 46.8488 119.642 47.239 121.035 50.1221L122.049 52.2207C122.675 53.5168 122.603 55.0397 121.771 56.2139C119.742 59.0743 115.46 64.4751 110.038 67.7383C104.564 71.0329 92.8441 68.6216 86.6396 66.9922C83.7595 68.1122 80.6297 68.7285 77.3564 68.7285C63.1367 68.7285 51.6094 57.1377 51.6094 42.8398C51.6094 28.542 63.1367 16.9512 77.3564 16.9512Z"/>
</mask>
<path d="M77.3564 16.9512C91.5761 16.9512 103.103 28.542 103.104 42.8398C103.104 44.8457 102.876 46.7981 102.446 48.6729C103.253 50.5799 104.447 52.1394 106.219 52.5312C108.341 53.0003 111.015 51.1551 113.274 49.0381C115.611 46.8488 119.642 47.239 121.035 50.1221L122.049 52.2207C122.675 53.5168 122.603 55.0397 121.771 56.2139C119.742 59.0743 115.46 64.4751 110.038 67.7383C104.564 71.0329 92.8441 68.6216 86.6396 66.9922C83.7595 68.1122 80.6297 68.7285 77.3564 68.7285C63.1367 68.7285 51.6094 57.1377 51.6094 42.8398C51.6094 28.542 63.1367 16.9512 77.3564 16.9512Z" fill="#D9D9D9"/>
<path d="M77.3564 16.9512L77.3564 15.5365H77.3564V16.9512ZM103.104 42.8398L104.518 42.8398L104.518 42.8398L103.104 42.8398ZM102.446 48.6729L101.067 48.357L100.965 48.8028L101.143 49.224L102.446 48.6729ZM106.219 52.5312L105.913 53.9126L105.913 53.9126L106.219 52.5312ZM113.274 49.0381L114.242 50.0705L114.242 50.0705L113.274 49.0381ZM121.035 50.1221L122.309 49.5068L122.309 49.5065L121.035 50.1221ZM122.049 52.2207L120.775 52.836L120.775 52.8362L122.049 52.2207ZM121.771 56.2139L122.924 57.0323L122.924 57.0323L121.771 56.2139ZM110.038 67.7383L110.768 68.9504L110.768 68.9504L110.038 67.7383ZM86.6396 66.9922L86.999 65.6239L86.5549 65.5073L86.1269 65.6737L86.6396 66.9922ZM77.3564 68.7285L77.3564 70.1432L77.3564 70.1432L77.3564 68.7285ZM51.6094 42.8398L50.1947 42.8398V42.8398H51.6094ZM77.3564 16.9512L77.3564 18.3658C90.7875 18.3659 101.689 29.316 101.689 42.8398L103.104 42.8398L104.518 42.8398C104.518 27.768 92.3647 15.5365 77.3564 15.5365L77.3564 16.9512ZM103.104 42.8398H101.689C101.689 44.7382 101.473 46.5847 101.067 48.357L102.446 48.6729L103.825 48.9887C104.278 47.0115 104.518 44.9532 104.518 42.8398H103.104ZM102.446 48.6729L101.143 49.224C102.003 51.2559 103.452 53.3683 105.913 53.9126L106.219 52.5312L106.524 51.1499C105.441 50.9105 104.503 49.9039 103.749 48.1217L102.446 48.6729ZM106.219 52.5312L105.913 53.9126C107.47 54.2566 109.043 53.7256 110.375 52.9947C111.738 52.2469 113.07 51.168 114.242 50.0705L113.274 49.0381L112.307 48.0057C111.219 49.0252 110.084 49.9274 109.014 50.5142C107.914 51.1179 107.09 51.275 106.524 51.1499L106.219 52.5312ZM113.274 49.0381L114.242 50.0705C116.023 48.4013 118.864 48.8805 119.761 50.7376L121.035 50.1221L122.309 49.5065C120.42 45.5974 115.199 45.2963 112.307 48.0057L113.274 49.0381ZM121.035 50.1221L119.761 50.7374L120.775 52.836L122.049 52.2207L123.323 51.6054L122.309 49.5068L121.035 50.1221ZM122.049 52.2207L120.775 52.8362C121.196 53.7083 121.126 54.6769 120.617 55.3955L121.771 56.2139L122.924 57.0323C124.08 55.4026 124.154 53.3253 123.323 51.6052L122.049 52.2207ZM121.771 56.2139L120.617 55.3955C118.617 58.2152 114.473 63.4182 109.309 66.5262L110.038 67.7383L110.768 68.9504C116.447 65.5319 120.867 59.9334 122.924 57.0323L121.771 56.2139ZM110.038 67.7383L109.309 66.5262C106.994 67.9195 103.107 68.1954 98.7394 67.8028C94.4622 67.4182 90.0672 66.4297 86.999 65.6239L86.6396 66.9922L86.2803 68.3605C89.4165 69.1841 93.9837 70.216 98.4861 70.6207C102.898 71.0174 107.609 70.8516 110.768 68.9504L110.038 67.7383ZM86.6396 66.9922L86.1269 65.6737C83.4069 66.7314 80.4507 67.3138 77.3564 67.3138L77.3564 68.7285L77.3564 70.1432C80.8087 70.1432 84.1121 69.4929 87.1524 68.3107L86.6396 66.9922ZM77.3564 68.7285V67.3138C63.9253 67.3138 53.0241 56.3637 53.0241 42.8398H51.6094H50.1947C50.1947 57.9117 62.3481 70.1432 77.3564 70.1432V68.7285ZM51.6094 42.8398L53.0241 42.8398C53.0241 29.316 63.9253 18.3658 77.3564 18.3658V16.9512V15.5365C62.3481 15.5365 50.1947 27.768 50.1947 42.8398L51.6094 42.8398Z" fill="black" mask="url(#path-9-inside-1_94_1127)"/>
<path d="M47.2959 36.9307L47.292 36.8926C46.4229 28.9316 48.1154 22.8564 50.7393 18.7939C53.3792 14.7065 56.9149 12.7071 59.7451 12.707C62.5584 12.707 65.8223 14.6919 67.7305 18.7227C69.6308 22.7368 70.1692 28.7807 67.4229 36.7383C66.0192 40.8053 64.945 44.6866 63.9873 48.167C63.0263 51.6596 62.1887 54.7253 61.252 57.2139C60.3099 59.7163 59.3055 61.5239 58.0732 62.5791C56.8969 63.5863 55.4481 63.9623 53.4121 63.4453L53.3262 63.4238H53.2373C49.9346 63.4238 48.0582 62.5832 46.9824 61.2959C45.8843 59.9817 45.4793 58.041 45.501 55.5225C45.5226 53.0128 45.962 50.0872 46.4082 46.8984C46.8511 43.7331 47.2959 40.3347 47.2959 36.9688V36.9307Z" fill="#D9D9D9" stroke="black" stroke-width="1.41468"/>
<ellipse cx="87.0477" cy="46.0234" rx="2.75862" ry="3.60743" fill="black"/>
<rect x="86.1328" y="43.9717" width="1.13174" height="1.41468" rx="0.565871" fill="white"/>
<path d="M80.883 63.3093C80.883 63.3093 81.9795 64.8882 83.0077 65.4796C84.2052 66.1684 86.4736 66.1869 86.4736 66.1869" stroke="black" stroke-width="1.41468" stroke-linecap="round"/>
<circle cx="48.7825" cy="114.706" r="2.82935" fill="#C6C2C2"/>
<circle cx="57.7004" cy="122.77" r="2.82935" fill="#C6C2C2"/>
<circle cx="72.4114" cy="122.487" r="2.82935" fill="#C6C2C2"/>
<circle cx="85.5637" cy="124.184" r="2.82935" fill="#C6C2C2"/>
<circle cx="79.4856" cy="134.794" r="2.82935" fill="#C6C2C2"/>
<circle cx="76.509" cy="110.886" r="2.82935" fill="#C6C2C2"/>
<circle cx="64.345" cy="113.574" r="2.82935" fill="#C6C2C2"/>
<circle cx="60.3879" cy="101.549" r="2.82935" fill="#C6C2C2"/>
<circle cx="60.2434" cy="89.5247" r="2.82935" fill="#C6C2C2"/>
<circle cx="90.3762" cy="113.149" r="2.82935" fill="#C6C2C2"/>
<circle cx="98.5794" cy="117.535" r="2.82935" fill="#C6C2C2"/>
<path d="M247.861 94.1507C249.791 87.4074 242.555 67.7499 242.555 67.7499L233.656 77.9205C233.656 77.9205 231.351 89.2543 233.509 95.6436C234.776 99.3965 238.025 102.027 241.921 101.311C245.494 100.654 245.931 100.894 247.861 94.1507Z" fill="#D9D9D9"/>
<path d="M247.861 94.1507L248.541 94.3454L248.541 94.3454L247.861 94.1507ZM233.509 95.6436L234.179 95.4172L233.509 95.6436ZM234.35 78.0615C234.428 77.6787 234.18 77.3052 233.798 77.2273C233.415 77.1494 233.041 77.3966 232.963 77.7794L234.35 78.0615ZM241.921 101.311L242.049 102.007L242.049 102.007L241.921 101.311ZM242.555 67.7499C241.891 67.9942 241.891 67.9942 241.891 67.9943C241.891 67.9945 241.891 67.9946 241.891 67.9949C241.891 67.9954 241.892 67.9962 241.892 67.9973C241.893 67.9995 241.894 68.0029 241.896 68.0075C241.899 68.0166 241.904 68.0304 241.911 68.0487C241.924 68.0854 241.944 68.1403 241.97 68.2123C242.022 68.3564 242.098 68.5692 242.195 68.8428C242.388 69.3901 242.662 70.1804 242.984 71.15C243.63 73.0902 244.47 75.745 245.249 78.6074C246.029 81.4724 246.745 84.5313 247.146 87.2828C247.551 90.0628 247.619 92.4259 247.181 93.9561L247.861 94.1507L248.541 94.3454C249.068 92.5039 248.955 89.881 248.546 87.0787C248.133 84.2479 247.402 81.128 246.614 78.2357C245.826 75.3408 244.977 72.6598 244.326 70.7034C244.001 69.7249 243.724 68.9267 243.529 68.3726C243.431 68.0955 243.354 67.8794 243.301 67.7323C243.274 67.6587 243.254 67.6024 243.24 67.5642C243.233 67.5452 243.228 67.5307 243.224 67.5209C243.222 67.5159 243.221 67.5122 243.22 67.5096C243.22 67.5084 243.219 67.5074 243.219 67.5067C243.219 67.5064 243.219 67.5061 243.219 67.5059C243.219 67.5057 243.219 67.5055 242.555 67.7499ZM233.509 95.6436L234.179 95.4172C233.15 92.3713 233.172 88.0676 233.478 84.4456C233.63 82.6503 233.848 81.0511 234.029 79.9009C234.119 79.3261 234.2 78.8642 234.257 78.5469C234.286 78.3883 234.31 78.2659 234.326 78.1836C234.334 78.1425 234.34 78.1115 234.344 78.0909C234.346 78.0807 234.347 78.073 234.348 78.0681C234.349 78.0656 234.349 78.0638 234.349 78.0627C234.349 78.0622 234.35 78.0618 234.35 78.0616C234.35 78.0615 234.35 78.0614 234.35 78.0614C234.35 78.0614 234.35 78.0615 233.656 77.9205C232.963 77.7794 232.963 77.7796 232.963 77.7798C232.963 77.7799 232.963 77.7801 232.963 77.7804C232.963 77.7808 232.963 77.7815 232.963 77.7823C232.962 77.784 232.962 77.7863 232.961 77.7893C232.96 77.7953 232.958 77.804 232.956 77.8154C232.952 77.8382 232.945 77.8715 232.937 77.915C232.92 78.0019 232.896 78.1292 232.866 78.293C232.806 78.6205 232.723 79.0939 232.631 79.6815C232.447 80.856 232.224 82.4897 232.069 84.3265C231.761 87.9688 231.709 92.5266 232.839 95.8699L233.509 95.6436ZM247.861 94.1507L247.181 93.9561C246.699 95.6405 246.318 96.8614 245.963 97.7632C245.607 98.6684 245.298 99.1964 244.987 99.5341C244.694 99.8519 244.365 100.039 243.879 100.187C243.356 100.347 242.722 100.445 241.793 100.616L241.921 101.311L242.049 102.007C242.907 101.849 243.667 101.731 244.292 101.54C244.953 101.338 245.523 101.04 246.027 100.493C246.513 99.9654 246.899 99.2479 247.279 98.281C247.661 97.3105 248.058 96.0326 248.541 94.3454L247.861 94.1507ZM241.921 101.311L241.793 100.616C238.344 101.249 235.37 98.9448 234.179 95.4172L233.509 95.6436L232.839 95.8699C234.182 99.8482 237.706 102.805 242.049 102.007L241.921 101.311Z" fill="black"/>
<path d="M243.153 67.1445L266.619 118.994C267.274 120.44 266.885 122.145 265.668 123.164L238.98 145.513C237.713 146.574 235.879 146.616 234.564 145.613L201.262 120.196C199.897 119.155 199.477 117.282 200.267 115.758L226.001 66.0684L243.153 67.1445Z" fill="#D9D9D9" stroke="black" stroke-width="1.41468"/>
<circle cx="245.111" cy="102.822" r="2.82935" fill="#C6C2C2"/>
<circle cx="232.236" cy="99.2849" r="2.82935" fill="#C6C2C2"/>
<circle cx="249.208" cy="93.7688" r="2.82935" fill="#C6C2C2"/>
<path d="M252.755 86.528C250.634 79.8424 233.735 67.4657 233.735 67.4657L231.945 80.8604C231.945 80.8604 236.292 91.5786 241.623 95.7087C244.754 98.1346 248.916 98.53 251.766 95.7789C254.38 93.2556 254.877 93.2137 252.755 86.528Z" fill="#D9D9D9"/>
<path d="M252.755 86.528L253.43 86.3141L253.43 86.3141L252.755 86.528ZM241.623 95.7087L242.056 95.1495L241.623 95.7087ZM232.601 80.5946C232.454 80.2326 232.041 80.0581 231.679 80.2049C231.317 80.3517 231.143 80.7642 231.29 81.1262L232.601 80.5946ZM251.766 95.7789L252.257 96.2878L252.257 96.2878L251.766 95.7789ZM233.735 67.4657C233.317 68.0364 233.317 68.0364 233.317 68.0364C233.317 68.0365 233.317 68.0366 233.317 68.0368C233.318 68.0371 233.318 68.0376 233.319 68.0383C233.321 68.0397 233.324 68.0418 233.328 68.0447C233.336 68.0505 233.348 68.0592 233.364 68.0708C233.395 68.0939 233.442 68.1286 233.503 68.1743C233.626 68.2656 233.808 68.4008 234.039 68.5754C234.503 68.9247 235.168 69.4317 235.973 70.0612C237.583 71.3207 239.751 73.0682 241.984 75.022C244.218 76.9777 246.506 79.1305 248.362 81.2012C250.237 83.2932 251.6 85.2248 252.081 86.742L252.755 86.528L253.43 86.3141C252.85 84.4885 251.305 82.3658 249.415 80.257C247.506 78.1266 245.171 75.9317 242.915 73.9575C240.658 71.9815 238.468 70.2169 236.844 68.9468C236.032 68.3115 235.36 67.7994 234.891 67.4458C234.656 67.2689 234.472 67.1317 234.347 67.0384C234.284 66.9918 234.236 66.9562 234.203 66.9321C234.187 66.92 234.174 66.9109 234.166 66.9047C234.162 66.9016 234.158 66.8992 234.156 66.8976C234.155 66.8968 234.154 66.8962 234.154 66.8958C234.153 66.8956 234.153 66.8954 234.153 66.8953C234.153 66.8951 234.153 66.895 233.735 67.4657ZM241.623 95.7087L242.056 95.1495C239.515 93.1806 237.153 89.5825 235.405 86.3956C234.538 84.816 233.836 83.3628 233.35 82.3046C233.108 81.7758 232.92 81.3464 232.792 81.05C232.729 80.9019 232.68 80.787 232.648 80.7097C232.632 80.671 232.62 80.6418 232.612 80.6224C232.608 80.6127 232.605 80.6055 232.603 80.6009C232.602 80.5985 232.602 80.5969 232.601 80.5958C232.601 80.5953 232.601 80.5949 232.601 80.5947C232.601 80.5946 232.601 80.5946 232.601 80.5945C232.601 80.5946 232.601 80.5946 231.945 80.8604C231.29 81.1262 231.29 81.1264 231.29 81.1266C231.29 81.1267 231.29 81.1269 231.29 81.1271C231.29 81.1276 231.29 81.1282 231.291 81.129C231.291 81.1305 231.292 81.1327 231.293 81.1355C231.296 81.1412 231.299 81.1495 231.304 81.1602C231.312 81.1816 231.325 81.2131 231.342 81.2539C231.376 81.3356 231.427 81.4551 231.492 81.608C231.624 81.914 231.817 82.3542 232.065 82.8947C232.561 83.9753 233.278 85.4598 234.165 87.076C235.923 90.2807 238.4 94.1067 241.19 96.2679L241.623 95.7087ZM252.755 86.528L252.081 86.742C252.611 88.412 252.969 89.64 253.172 90.5875C253.376 91.5386 253.411 92.1492 253.338 92.6027C253.27 93.0294 253.098 93.367 252.775 93.7598C252.428 94.1818 251.954 94.6141 251.275 95.27L251.766 95.7789L252.257 96.2878C252.885 95.682 253.453 95.1628 253.868 94.6584C254.307 94.1247 254.617 93.5609 254.735 92.826C254.848 92.1179 254.773 91.3068 254.555 90.2908C254.336 89.2713 253.96 87.987 253.43 86.3141L252.755 86.528ZM251.766 95.7789L251.275 95.27C248.752 97.7056 245 97.4298 242.056 95.1495L241.623 95.7087L241.19 96.2679C244.509 98.8395 249.08 99.3543 252.257 96.2878L251.766 95.7789Z" fill="black"/>
<mask id="path-34-inside-2_94_1127" fill="white">
<path d="M236.767 16.9512C250.986 16.9513 262.514 28.5421 262.514 42.8398C262.514 44.8457 262.286 46.7981 261.856 48.6729C262.663 50.5799 263.857 52.1394 265.629 52.5312C267.751 53.0002 270.425 51.1551 272.685 49.0381C275.021 46.8488 279.052 47.2389 280.445 50.1221L281.459 52.2207C282.085 53.5168 282.013 55.0397 281.181 56.2139C279.152 59.0742 274.87 64.475 269.448 67.7383C263.974 71.0328 252.254 68.6216 246.05 66.9922C243.17 68.1122 240.04 68.7285 236.767 68.7285C222.547 68.7285 211.02 57.1377 211.02 42.8398C211.02 28.542 222.547 16.9512 236.767 16.9512Z"/>
</mask>
<path d="M236.767 16.9512C250.986 16.9513 262.514 28.5421 262.514 42.8398C262.514 44.8457 262.286 46.7981 261.856 48.6729C262.663 50.5799 263.857 52.1394 265.629 52.5312C267.751 53.0002 270.425 51.1551 272.685 49.0381C275.021 46.8488 279.052 47.2389 280.445 50.1221L281.459 52.2207C282.085 53.5168 282.013 55.0397 281.181 56.2139C279.152 59.0742 274.87 64.475 269.448 67.7383C263.974 71.0328 252.254 68.6216 246.05 66.9922C243.17 68.1122 240.04 68.7285 236.767 68.7285C222.547 68.7285 211.02 57.1377 211.02 42.8398C211.02 28.542 222.547 16.9512 236.767 16.9512Z" fill="#D9D9D9"/>
<path d="M236.767 16.9512L236.767 15.5365H236.767V16.9512ZM262.514 42.8398L263.928 42.8398L263.928 42.8398L262.514 42.8398ZM261.856 48.6729L260.477 48.357L260.375 48.8028L260.554 49.2241L261.856 48.6729ZM265.629 52.5312L265.323 53.9126L265.324 53.9126L265.629 52.5312ZM272.685 49.0381L273.652 50.0705L273.652 50.0705L272.685 49.0381ZM280.445 50.1221L281.719 49.5068L281.719 49.5065L280.445 50.1221ZM281.459 52.2207L280.185 52.836L280.185 52.8362L281.459 52.2207ZM281.181 56.2139L282.335 57.0323L282.335 57.0323L281.181 56.2139ZM269.448 67.7383L270.178 68.9504L270.178 68.9504L269.448 67.7383ZM246.05 66.9922L246.409 65.6239L245.965 65.5073L245.537 65.6737L246.05 66.9922ZM236.767 68.7285L236.767 70.1432L236.767 70.1432L236.767 68.7285ZM211.02 42.8398L209.605 42.8398V42.8398H211.02ZM236.767 16.9512L236.767 18.3658C250.198 18.366 261.099 29.3161 261.099 42.8398L262.514 42.8398L263.928 42.8398C263.928 27.7681 251.775 15.5367 236.767 15.5365L236.767 16.9512ZM262.514 42.8398H261.099C261.099 44.7382 260.883 46.5847 260.477 48.357L261.856 48.6729L263.235 48.9887C263.688 47.0115 263.928 44.9532 263.928 42.8398H262.514ZM261.856 48.6729L260.554 49.2241C261.413 51.2558 262.862 53.3683 265.323 53.9126L265.629 52.5312L265.934 51.1499C264.852 50.9105 263.913 49.9039 263.159 48.1217L261.856 48.6729ZM265.629 52.5312L265.324 53.9126C266.88 54.2565 268.454 53.7256 269.786 52.9947C271.148 52.2469 272.48 51.168 273.652 50.0705L272.685 49.0381L271.717 48.0057C270.629 49.0252 269.494 49.9273 268.425 50.5141C267.324 51.1178 266.5 51.2749 265.934 51.1499L265.629 52.5312ZM272.685 49.0381L273.652 50.0705C275.434 48.4012 278.274 48.8805 279.172 50.7376L280.445 50.1221L281.719 49.5065C279.83 45.5973 274.609 45.2963 271.717 48.0057L272.685 49.0381ZM280.445 50.1221L279.171 50.7374L280.185 52.836L281.459 52.2207L282.733 51.6054L281.719 49.5068L280.445 50.1221ZM281.459 52.2207L280.185 52.8362C280.607 53.7083 280.536 54.6769 280.027 55.3955L281.181 56.2139L282.335 57.0323C283.49 55.4026 283.564 53.3253 282.733 51.6052L281.459 52.2207ZM281.181 56.2139L280.027 55.3955C278.027 58.2152 273.883 63.4182 268.719 66.5262L269.448 67.7383L270.178 68.9504C275.858 65.5319 280.277 59.9333 282.335 57.0323L281.181 56.2139ZM269.448 67.7383L268.719 66.5262C266.404 67.9195 262.517 68.1954 258.15 67.8027C253.872 67.4182 249.477 66.4297 246.409 65.6239L246.05 66.9922L245.69 68.3605C248.827 69.1841 253.394 70.216 257.896 70.6207C262.308 71.0174 267.019 70.8516 270.178 68.9504L269.448 67.7383ZM246.05 66.9922L245.537 65.6737C242.817 66.7314 239.861 67.3138 236.767 67.3138L236.767 68.7285L236.767 70.1432C240.219 70.1432 243.522 69.493 246.563 68.3107L246.05 66.9922ZM236.767 68.7285V67.3138C223.335 67.3138 212.434 56.3637 212.434 42.8398H211.02H209.605C209.605 57.9117 221.758 70.1432 236.767 70.1432V68.7285ZM211.02 42.8398L212.434 42.8398C212.434 29.316 223.335 18.3658 236.767 18.3658V16.9512V15.5365C221.758 15.5365 209.605 27.768 209.605 42.8398L211.02 42.8398Z" fill="black" mask="url(#path-34-inside-2_94_1127)"/>
<path d="M206.698 36.9307L206.694 36.8926C205.825 28.9316 207.518 22.8564 210.142 18.7939C212.782 14.7065 216.317 12.7071 219.147 12.707C221.961 12.707 225.225 14.6919 227.133 18.7227C229.033 22.7368 229.572 28.7807 226.825 36.7383C225.422 40.8053 224.347 44.6866 223.39 48.167C222.429 51.6596 221.591 54.7253 220.654 57.2139C219.712 59.7163 218.708 61.5239 217.476 62.5791C216.299 63.5863 214.85 63.9623 212.814 63.4453L212.729 63.4238H212.64C209.337 63.4238 207.461 62.5832 206.385 61.2959C205.287 59.9817 204.882 58.041 204.903 55.5225C204.925 53.0128 205.364 50.0872 205.811 46.8984C206.253 43.7331 206.698 40.3347 206.698 36.9688V36.9307Z" fill="#D9D9D9" stroke="black" stroke-width="1.41468"/>
<ellipse cx="246.45" cy="46.0234" rx="2.75862" ry="3.60743" fill="black"/>
<rect x="245.531" y="43.9717" width="1.13174" height="1.41468" rx="0.565871" fill="white"/>
<path d="M240.281 63.3093C240.281 63.3093 241.378 64.8882 242.406 65.4796C243.604 66.1684 245.872 66.1869 245.872 66.1869" stroke="black" stroke-width="1.41468" stroke-linecap="round"/>
<circle cx="208.189" cy="114.706" r="2.82935" fill="#C6C2C2"/>
<circle cx="217.103" cy="122.77" r="2.82935" fill="#C6C2C2"/>
<circle cx="231.814" cy="122.487" r="2.82935" fill="#C6C2C2"/>
<circle cx="244.97" cy="124.184" r="2.82935" fill="#C6C2C2"/>
<circle cx="238.884" cy="134.794" r="2.82935" fill="#C6C2C2"/>
<circle cx="235.919" cy="110.886" r="2.82935" fill="#C6C2C2"/>
<circle cx="223.751" cy="113.574" r="2.82935" fill="#C6C2C2"/>
<circle cx="219.79" cy="101.549" r="2.82935" fill="#C6C2C2"/>
<circle cx="219.646" cy="89.5247" r="2.82935" fill="#C6C2C2"/>
<circle cx="249.782" cy="113.149" r="2.82935" fill="#C6C2C2"/>
<circle cx="257.99" cy="117.535" r="2.82935" fill="#C6C2C2"/>
<path d="M538.243 81.412C542.433 75.787 562.45 69.6144 562.45 69.6144L559.763 82.8582C559.763 82.8582 552.152 91.5668 545.763 93.7273C542.011 94.9963 537.949 94.0096 536.154 90.478C534.509 87.2388 534.053 87.037 538.243 81.412Z" fill="#D9D9D9"/>
<path d="M538.243 81.412L537.676 80.9894L537.676 80.9894L538.243 81.412ZM545.763 93.7273L545.537 93.0572L545.763 93.7273ZM559.23 82.3927C559.487 82.0986 559.934 82.0685 560.228 82.3256C560.523 82.5827 560.553 83.0296 560.296 83.3237L559.23 82.3927ZM536.154 90.478L535.524 90.7984L535.524 90.7984L536.154 90.478ZM562.45 69.6144C562.659 70.2903 562.659 70.2903 562.659 70.2903C562.658 70.2904 562.658 70.2904 562.658 70.2905C562.657 70.2907 562.657 70.2909 562.655 70.2913C562.653 70.292 562.65 70.293 562.645 70.2945C562.636 70.2973 562.622 70.3017 562.603 70.3075C562.566 70.3191 562.51 70.3366 562.437 70.3596C562.291 70.4057 562.076 70.4742 561.8 70.5636C561.248 70.7422 560.453 71.004 559.487 71.3358C557.553 71.9995 554.933 72.9423 552.184 74.0591C549.433 75.1769 546.568 76.4637 544.137 77.8139C541.681 79.1781 539.761 80.5581 538.81 81.8345L538.243 81.412L537.676 80.9894C538.82 79.4534 540.974 77.9524 543.45 76.5772C545.951 75.1881 548.875 73.8769 551.652 72.7485C554.431 71.619 557.077 70.6671 559.027 69.9977C560.003 69.6629 560.805 69.3985 561.364 69.2176C561.644 69.1272 561.862 69.0576 562.012 69.0105C562.086 68.987 562.143 68.9691 562.182 68.957C562.201 68.9509 562.216 68.9464 562.226 68.9433C562.231 68.9417 562.235 68.9405 562.238 68.9397C562.239 68.9393 562.24 68.939 562.241 68.9388C562.241 68.9387 562.241 68.9386 562.241 68.9385C562.242 68.9385 562.242 68.9384 562.45 69.6144ZM545.763 93.7273L545.537 93.0572C548.582 92.0273 551.99 89.3987 554.684 86.9584C556.019 85.7488 557.158 84.605 557.963 83.7637C558.365 83.3433 558.683 82.999 558.9 82.7605C559.009 82.6413 559.092 82.5485 559.148 82.486C559.176 82.4547 559.197 82.431 559.211 82.4153C559.217 82.4074 559.223 82.4016 559.226 82.3978C559.228 82.3959 559.229 82.3946 559.23 82.3937C559.23 82.3933 559.23 82.393 559.23 82.3928C559.23 82.3927 559.23 82.3927 559.23 82.3927C559.23 82.3927 559.23 82.3927 559.763 82.8582C560.296 83.3237 560.295 83.3238 560.295 83.324C560.295 83.324 560.295 83.3242 560.295 83.3244C560.295 83.3248 560.294 83.3253 560.294 83.3259C560.293 83.3272 560.291 83.329 560.289 83.3313C560.285 83.3359 560.279 83.3425 560.271 83.3512C560.256 83.3686 560.233 83.3941 560.204 83.4271C560.145 83.4932 560.059 83.5897 559.946 83.7128C559.722 83.959 559.396 84.3119 558.985 84.7417C558.163 85.6007 557 86.7692 555.634 88.0068C552.925 90.4608 549.333 93.2668 545.99 94.3974L545.763 93.7273ZM538.243 81.412L538.81 81.8345C537.764 83.2396 537.025 84.2833 536.523 85.1123C536.019 85.9445 535.787 86.5102 535.707 86.9625C535.632 87.388 535.683 87.7631 535.86 88.2399C536.05 88.7522 536.357 89.3157 536.785 90.1576L536.154 90.478L535.524 90.7984C535.129 90.0207 534.761 89.3443 534.534 88.732C534.294 88.0841 534.185 87.4498 534.314 86.7169C534.438 86.0107 534.775 85.2687 535.313 84.3798C535.852 83.4877 536.628 82.3969 537.676 80.9894L538.243 81.412ZM536.154 90.478L536.785 90.1576C538.373 93.2843 542.009 94.2501 545.537 93.0572L545.763 93.7273L545.99 94.3974C542.012 95.7426 537.524 94.7349 535.524 90.7984L536.154 90.478Z" fill="black"/>
<path d="M546.648 92.4122C545.802 85.4493 556.038 67.1736 556.038 67.1736L563.227 78.6165C563.227 78.6165 563.723 90.1718 560.587 96.1425C558.745 99.6495 555.124 101.737 551.389 100.417C547.963 99.2071 547.494 99.3751 546.648 92.4122Z" fill="#D9D9D9"/>
<path d="M556.245 67.1445L532.779 118.994C532.125 120.44 532.514 122.145 533.73 123.164L560.418 145.513C561.686 146.574 563.52 146.616 564.834 145.613L598.137 120.196C599.502 119.155 599.922 117.282 599.132 115.758L573.397 66.0684L556.245 67.1445Z" fill="#D9D9D9" stroke="black" stroke-width="1.41468"/>
<circle cx="2.82935" cy="2.82935" r="2.82935" transform="matrix(-1 0 0 1 557.125 99.9927)" fill="#C6C2C2"/>
<circle cx="2.82935" cy="2.82935" r="2.82935" transform="matrix(-1 0 0 1 553.016 90.9395)" fill="#C6C2C2"/>
<path d="M560.916 95.45C557.369 89.3985 559.489 68.559 559.489 68.559L570.638 76.1971C570.638 76.1971 575.689 86.6014 575.188 93.3266C574.894 97.2769 572.402 100.633 568.45 100.908C564.825 101.161 564.462 101.502 560.916 95.45Z" fill="#D9D9D9"/>
<path d="M560.916 95.45L560.305 95.8076L560.305 95.8076L560.916 95.45ZM575.188 93.3266L574.483 93.274L575.188 93.3266ZM570.001 76.506C569.831 76.1546 569.977 75.7314 570.329 75.5608C570.68 75.3901 571.103 75.5367 571.274 75.8881L570.001 76.506ZM568.45 100.908L568.499 101.614L568.499 101.614L568.45 100.908ZM559.489 68.559C560.193 68.6306 560.193 68.6306 560.193 68.6307C560.193 68.6308 560.193 68.631 560.193 68.6313C560.193 68.6318 560.193 68.6327 560.193 68.6338C560.193 68.6362 560.192 68.6398 560.192 68.6446C560.191 68.6543 560.189 68.6689 560.187 68.6883C560.184 68.7272 560.178 68.7853 560.171 68.8615C560.156 69.014 560.135 69.2391 560.11 69.5281C560.059 70.1062 559.99 70.9397 559.919 71.9591C559.776 73.9988 559.623 76.7792 559.58 79.7455C559.537 82.7145 559.604 85.8552 559.9 88.6201C560.199 91.4135 560.721 93.7191 561.526 95.0924L560.916 95.45L560.305 95.8076C559.337 94.1551 558.795 91.5864 558.493 88.7705C558.189 85.926 558.122 82.7222 558.165 79.7249C558.209 76.7249 558.364 73.9172 558.508 71.8604C558.58 70.8316 558.649 69.9897 558.701 69.4044C558.726 69.1118 558.747 68.8833 558.762 68.7275C558.77 68.6497 558.775 68.59 558.779 68.5496C558.781 68.5294 558.783 68.5141 558.784 68.5037C558.785 68.4984 558.785 68.4945 558.785 68.4918C558.785 68.4904 558.785 68.4894 558.786 68.4886C558.786 68.4883 558.786 68.488 558.786 68.4878C558.786 68.4876 558.786 68.4874 559.489 68.559ZM575.188 93.3266L574.483 93.274C574.722 90.0679 573.63 85.905 572.433 82.4728C571.84 80.7716 571.23 79.277 570.77 78.2078C570.539 77.6735 570.346 77.2462 570.211 76.9533C570.144 76.8069 570.091 76.6941 570.055 76.6184C570.037 76.5805 570.023 76.552 570.014 76.5331C570.01 76.5237 570.006 76.5166 570.004 76.5121C570.003 76.5098 570.002 76.5082 570.002 76.5072C570.002 76.5067 570.001 76.5063 570.001 76.5061C570.001 76.506 570.001 76.506 570.001 76.506C570.001 76.506 570.001 76.506 570.638 76.1971C571.274 75.8881 571.274 75.8882 571.274 75.8884C571.274 75.8885 571.274 75.8887 571.274 75.8889C571.274 75.8894 571.275 75.89 571.275 75.8907C571.276 75.8922 571.277 75.8944 571.278 75.8971C571.281 75.9027 571.285 75.9107 571.29 75.9211C571.3 75.942 571.314 75.9727 571.333 76.0127C571.371 76.0927 571.426 76.21 571.496 76.3612C571.635 76.6636 571.833 77.1016 572.069 77.6478C572.539 78.7396 573.162 80.2664 573.769 82.0069C574.972 85.4583 576.156 89.8601 575.894 93.3792L575.188 93.3266ZM560.916 95.45L561.526 95.0924C562.412 96.604 563.085 97.6917 563.652 98.4769C564.222 99.2652 564.653 99.6998 565.038 99.9496C565.401 100.185 565.766 100.283 566.274 100.306C566.82 100.331 567.459 100.268 568.401 100.203L568.45 100.908L568.499 101.614C567.629 101.675 566.863 101.749 566.21 101.72C565.52 101.688 564.893 101.541 564.269 101.137C563.667 100.747 563.115 100.148 562.506 99.3058C561.895 98.4608 561.193 97.3218 560.305 95.8076L560.916 95.45ZM568.45 100.908L568.401 100.203C571.899 99.9588 574.206 96.9871 574.483 93.274L575.188 93.3266L575.894 93.3792C575.582 97.5666 572.904 101.307 568.499 101.614L568.45 100.908Z" fill="black"/>
<mask id="path-59-inside-3_94_1127" fill="white">
<path d="M562.644 16.9512C548.424 16.9512 536.897 28.542 536.896 42.8398C536.896 44.8457 537.124 46.7981 537.554 48.6729C536.747 50.5799 535.553 52.1394 533.781 52.5312C531.659 53.0003 528.985 51.1551 526.726 49.0381C524.389 46.8488 520.358 47.239 518.965 50.1221L517.951 52.2207C517.325 53.5168 517.397 55.0397 518.229 56.2139C520.258 59.0743 524.54 64.4751 529.962 67.7383C535.436 71.0329 547.156 68.6216 553.36 66.9922C556.241 68.1122 559.37 68.7285 562.644 68.7285C576.863 68.7285 588.391 57.1377 588.391 42.8398C588.391 28.542 576.863 16.9512 562.644 16.9512Z"/>
</mask>
<path d="M562.644 16.9512C548.424 16.9512 536.897 28.542 536.896 42.8398C536.896 44.8457 537.124 46.7981 537.554 48.6729C536.747 50.5799 535.553 52.1394 533.781 52.5312C531.659 53.0003 528.985 51.1551 526.726 49.0381C524.389 46.8488 520.358 47.239 518.965 50.1221L517.951 52.2207C517.325 53.5168 517.397 55.0397 518.229 56.2139C520.258 59.0743 524.54 64.4751 529.962 67.7383C535.436 71.0329 547.156 68.6216 553.36 66.9922C556.241 68.1122 559.37 68.7285 562.644 68.7285C576.863 68.7285 588.391 57.1377 588.391 42.8398C588.391 28.542 576.863 16.9512 562.644 16.9512Z" fill="#D9D9D9"/>
<path d="M562.644 16.9512L562.644 15.5365H562.644V16.9512ZM536.896 42.8398L535.482 42.8398L535.482 42.8398L536.896 42.8398ZM537.554 48.6729L538.933 48.357L539.035 48.8028L538.857 49.224L537.554 48.6729ZM533.781 52.5312L534.087 53.9126L534.087 53.9126L533.781 52.5312ZM526.726 49.0381L525.758 50.0705L525.758 50.0705L526.726 49.0381ZM518.965 50.1221L517.691 49.5068L517.691 49.5065L518.965 50.1221ZM517.951 52.2207L519.225 52.836L519.225 52.8362L517.951 52.2207ZM518.229 56.2139L517.076 57.0323L517.076 57.0323L518.229 56.2139ZM529.962 67.7383L529.232 68.9504L529.232 68.9504L529.962 67.7383ZM553.36 66.9922L553.001 65.6239L553.445 65.5073L553.873 65.6737L553.36 66.9922ZM562.644 68.7285L562.644 70.1432L562.644 70.1432L562.644 68.7285ZM588.391 42.8398L589.805 42.8398V42.8398H588.391ZM562.644 16.9512L562.644 18.3658C549.212 18.3659 538.311 29.316 538.311 42.8398L536.896 42.8398L535.482 42.8398C535.482 27.768 547.635 15.5365 562.644 15.5365L562.644 16.9512ZM536.896 42.8398H538.311C538.311 44.7382 538.527 46.5847 538.933 48.357L537.554 48.6729L536.175 48.9887C535.722 47.0115 535.482 44.9532 535.482 42.8398H536.896ZM537.554 48.6729L538.857 49.224C537.997 51.2559 536.548 53.3683 534.087 53.9126L533.781 52.5312L533.476 51.1499C534.559 50.9105 535.497 49.9039 536.251 48.1217L537.554 48.6729ZM533.781 52.5312L534.087 53.9126C532.53 54.2566 530.957 53.7256 529.625 52.9947C528.262 52.2469 526.93 51.168 525.758 50.0705L526.726 49.0381L527.693 48.0057C528.781 49.0252 529.916 49.9274 530.986 50.5142C532.086 51.1179 532.91 51.275 533.476 51.1499L533.781 52.5312ZM526.726 49.0381L525.758 50.0705C523.977 48.4013 521.136 48.8805 520.239 50.7376L518.965 50.1221L517.691 49.5065C519.58 45.5974 524.801 45.2963 527.693 48.0057L526.726 49.0381ZM518.965 50.1221L520.239 50.7374L519.225 52.836L517.951 52.2207L516.677 51.6054L517.691 49.5068L518.965 50.1221ZM517.951 52.2207L519.225 52.8362C518.804 53.7083 518.874 54.6769 519.383 55.3955L518.229 56.2139L517.076 57.0323C515.92 55.4026 515.846 53.3253 516.677 51.6052L517.951 52.2207ZM518.229 56.2139L519.383 55.3955C521.383 58.2152 525.527 63.4182 530.691 66.5262L529.962 67.7383L529.232 68.9504C523.553 65.5319 519.133 59.9334 517.076 57.0323L518.229 56.2139ZM529.962 67.7383L530.691 66.5262C533.006 67.9195 536.893 68.1954 541.261 67.8028C545.538 67.4182 549.933 66.4297 553.001 65.6239L553.36 66.9922L553.72 68.3605C550.583 69.1841 546.016 70.216 541.514 70.6207C537.102 71.0174 532.391 70.8516 529.232 68.9504L529.962 67.7383ZM553.36 66.9922L553.873 65.6737C556.593 66.7314 559.549 67.3138 562.644 67.3138L562.644 68.7285L562.644 70.1432C559.191 70.1432 555.888 69.4929 552.848 68.3107L553.36 66.9922ZM562.644 68.7285V67.3138C576.075 67.3138 586.976 56.3637 586.976 42.8398H588.391H589.805C589.805 57.9117 577.652 70.1432 562.644 70.1432V68.7285ZM588.391 42.8398L586.976 42.8398C586.976 29.316 576.075 18.3658 562.644 18.3658V16.9512V15.5365C577.652 15.5365 589.805 27.768 589.805 42.8398L588.391 42.8398Z" fill="black" mask="url(#path-59-inside-3_94_1127)"/>
<path d="M592.704 36.9307L592.708 36.8926C593.577 28.9316 591.885 22.8564 589.261 18.7939C586.621 14.7065 583.085 12.7071 580.255 12.707C577.442 12.707 574.178 14.6919 572.27 18.7227C570.369 22.7368 569.831 28.7807 572.577 36.7383C573.981 40.8053 575.055 44.6866 576.013 48.167C576.974 51.6596 577.811 54.7253 578.748 57.2139C579.69 59.7163 580.694 61.5239 581.927 62.5791C583.103 63.5863 584.552 63.9623 586.588 63.4453L586.674 63.4238H586.763C590.065 63.4238 591.942 62.5832 593.018 61.2959C594.116 59.9817 594.521 58.041 594.499 55.5225C594.477 53.0128 594.038 50.0872 593.592 46.8984C593.149 43.7331 592.704 40.3347 592.704 36.9688V36.9307Z" fill="#D9D9D9" stroke="black" stroke-width="1.41468"/>
<ellipse cx="2.75862" cy="3.60743" rx="2.75862" ry="3.60743" transform="matrix(-1 0 0 1 555.711 42.416)" fill="black"/>
<rect width="1.13174" height="1.41468" rx="0.565871" transform="matrix(-1 0 0 1 553.867 43.9717)" fill="white"/>
<path d="M559.117 63.3093C559.117 63.3093 558.02 64.8882 556.992 65.4796C555.795 66.1684 553.526 66.1869 553.526 66.1869" stroke="black" stroke-width="1.41468" stroke-linecap="round"/>
<circle cx="2.82935" cy="2.82935" r="2.82935" transform="matrix(-1 0 0 1 594.047 111.877)" fill="#C6C2C2"/>
<circle cx="2.82935" cy="2.82935" r="2.82935" transform="matrix(-1 0 0 1 585.129 119.94)" fill="#C6C2C2"/>
<circle cx="2.82935" cy="2.82935" r="2.82935" transform="matrix(-1 0 0 1 570.418 119.657)" fill="#C6C2C2"/>
<circle cx="2.82935" cy="2.82935" r="2.82935" transform="matrix(-1 0 0 1 557.266 121.354)" fill="#C6C2C2"/>
<circle cx="2.82935" cy="2.82935" r="2.82935" transform="matrix(-1 0 0 1 563.344 131.965)" fill="#C6C2C2"/>
<circle cx="2.82935" cy="2.82935" r="2.82935" transform="matrix(-1 0 0 1 566.32 108.057)" fill="#C6C2C2"/>
<circle cx="2.82935" cy="2.82935" r="2.82935" transform="matrix(-1 0 0 1 578.484 110.745)" fill="#C6C2C2"/>
<circle cx="2.82935" cy="2.82935" r="2.82935" transform="matrix(-1 0 0 1 582.441 98.7197)" fill="#C6C2C2"/>
<circle cx="2.82935" cy="2.82935" r="2.82935" transform="matrix(-1 0 0 1 582.586 86.6953)" fill="#C6C2C2"/>
<circle cx="2.82935" cy="2.82935" r="2.82935" transform="matrix(-1 0 0 1 552.453 110.32)" fill="#C6C2C2"/>
<circle cx="2.82935" cy="2.82935" r="2.82935" transform="matrix(-1 0 0 1 544.25 114.706)" fill="#C6C2C2"/>
<path d="M392.139 94.1507C390.209 87.4074 397.445 67.7499 397.445 67.7499L406.344 77.9205C406.344 77.9205 408.649 89.2543 406.491 95.6436C405.224 99.3965 401.975 102.027 398.079 101.311C394.506 100.654 394.069 100.894 392.139 94.1507Z" fill="#D9D9D9"/>
<path d="M392.139 94.1507L391.459 94.3454L391.459 94.3454L392.139 94.1507ZM406.491 95.6436L405.821 95.4172L406.491 95.6436ZM405.65 78.0615C405.572 77.6787 405.82 77.3052 406.202 77.2273C406.585 77.1494 406.959 77.3966 407.037 77.7794L405.65 78.0615ZM398.079 101.311L397.951 102.007L397.951 102.007L398.079 101.311ZM397.445 67.7499C398.109 67.9942 398.109 67.9942 398.109 67.9943C398.109 67.9945 398.109 67.9946 398.109 67.9949C398.109 67.9954 398.108 67.9962 398.108 67.9973C398.107 67.9995 398.106 68.0029 398.104 68.0075C398.101 68.0166 398.096 68.0304 398.089 68.0487C398.076 68.0854 398.056 68.1403 398.03 68.2123C397.978 68.3564 397.902 68.5692 397.805 68.8428C397.612 69.3901 397.338 70.1804 397.016 71.15C396.37 73.0902 395.53 75.745 394.751 78.6074C393.971 81.4724 393.255 84.5313 392.854 87.2828C392.449 90.0628 392.381 92.4259 392.819 93.9561L392.139 94.1507L391.459 94.3454C390.932 92.5039 391.045 89.881 391.454 87.0787C391.867 84.2479 392.598 81.128 393.386 78.2357C394.174 75.3408 395.023 72.6598 395.674 70.7034C395.999 69.7249 396.276 68.9267 396.471 68.3726C396.569 68.0955 396.646 67.8794 396.699 67.7323C396.726 67.6587 396.746 67.6024 396.76 67.5642C396.767 67.5452 396.772 67.5307 396.776 67.5209C396.778 67.5159 396.779 67.5122 396.78 67.5096C396.78 67.5084 396.781 67.5074 396.781 67.5067C396.781 67.5064 396.781 67.5061 396.781 67.5059C396.781 67.5057 396.781 67.5055 397.445 67.7499ZM406.491 95.6436L405.821 95.4172C406.85 92.3713 406.828 88.0676 406.522 84.4456C406.37 82.6503 406.152 81.0511 405.971 79.9009C405.881 79.3261 405.8 78.8642 405.743 78.5469C405.714 78.3883 405.69 78.2659 405.674 78.1836C405.666 78.1425 405.66 78.1115 405.656 78.0909C405.654 78.0807 405.653 78.073 405.652 78.0681C405.651 78.0656 405.651 78.0638 405.651 78.0627C405.651 78.0622 405.65 78.0618 405.65 78.0616C405.65 78.0615 405.65 78.0614 405.65 78.0614C405.65 78.0614 405.65 78.0615 406.344 77.9205C407.037 77.7794 407.037 77.7796 407.037 77.7798C407.037 77.7799 407.037 77.7801 407.037 77.7804C407.037 77.7808 407.037 77.7815 407.037 77.7823C407.038 77.784 407.038 77.7863 407.039 77.7893C407.04 77.7953 407.042 77.804 407.044 77.8154C407.048 77.8382 407.055 77.8715 407.063 77.915C407.08 78.0019 407.104 78.1292 407.134 78.293C407.194 78.6205 407.277 79.0939 407.369 79.6815C407.553 80.856 407.776 82.4897 407.931 84.3265C408.239 87.9688 408.291 92.5266 407.161 95.8699L406.491 95.6436ZM392.139 94.1507L392.819 93.9561C393.301 95.6405 393.682 96.8614 394.037 97.7632C394.393 98.6684 394.702 99.1964 395.013 99.5341C395.306 99.8519 395.635 100.039 396.121 100.187C396.644 100.347 397.278 100.445 398.207 100.616L398.079 101.311L397.951 102.007C397.093 101.849 396.333 101.731 395.708 101.54C395.047 101.338 394.477 101.04 393.973 100.493C393.487 99.9654 393.101 99.2479 392.721 98.281C392.339 97.3105 391.942 96.0326 391.459 94.3454L392.139 94.1507ZM398.079 101.311L398.207 100.616C401.656 101.249 404.63 98.9448 405.821 95.4172L406.491 95.6436L407.161 95.8699C405.818 99.8482 402.294 102.805 397.951 102.007L398.079 101.311Z" fill="black"/>
<path d="M396.847 67.1445L373.381 118.994C372.726 120.44 373.115 122.145 374.332 123.164L401.02 145.513C402.287 146.574 404.121 146.616 405.436 145.613L438.738 120.196C440.103 119.155 440.523 117.282 439.733 115.758L413.999 66.0684L396.847 67.1445Z" fill="#D9D9D9" stroke="black" stroke-width="1.41468"/>
<circle cx="2.82935" cy="2.82935" r="2.82935" transform="matrix(-1 0 0 1 397.719 99.9927)" fill="#C6C2C2"/>
<circle cx="2.82935" cy="2.82935" r="2.82935" transform="matrix(-1 -5.34672e-09 -5.34672e-09 1 410.594 96.4556)" fill="#C6C2C2"/>
<circle cx="2.82935" cy="2.82935" r="2.82935" transform="matrix(-1 0 0 1 393.621 90.9395)" fill="#C6C2C2"/>
<path d="M387.245 86.528C389.366 79.8424 406.265 67.4657 406.265 67.4657L408.055 80.8604C408.055 80.8604 403.708 91.5786 398.377 95.7087C395.246 98.1346 391.084 98.53 388.234 95.7789C385.62 93.2556 385.123 93.2137 387.245 86.528Z" fill="#D9D9D9"/>
<path d="M387.245 86.528L386.57 86.3141L386.57 86.3141L387.245 86.528ZM398.377 95.7087L397.944 95.1495L398.377 95.7087ZM407.399 80.5946C407.546 80.2326 407.959 80.0581 408.321 80.2049C408.683 80.3517 408.857 80.7642 408.71 81.1262L407.399 80.5946ZM388.234 95.7789L387.743 96.2878L387.743 96.2878L388.234 95.7789ZM406.265 67.4657C406.683 68.0364 406.683 68.0364 406.683 68.0364C406.683 68.0365 406.683 68.0366 406.683 68.0368C406.682 68.0371 406.682 68.0376 406.681 68.0383C406.679 68.0397 406.676 68.0418 406.672 68.0447C406.664 68.0505 406.652 68.0592 406.636 68.0708C406.605 68.0939 406.558 68.1286 406.497 68.1743C406.374 68.2656 406.192 68.4008 405.961 68.5754C405.497 68.9247 404.832 69.4317 404.027 70.0612C402.417 71.3207 400.249 73.0682 398.016 75.022C395.782 76.9777 393.494 79.1305 391.638 81.2012C389.763 83.2932 388.4 85.2248 387.919 86.742L387.245 86.528L386.57 86.3141C387.15 84.4885 388.695 82.3658 390.585 80.257C392.494 78.1266 394.829 75.9317 397.085 73.9575C399.342 71.9815 401.532 70.2169 403.156 68.9468C403.968 68.3115 404.64 67.7994 405.109 67.4458C405.344 67.2689 405.528 67.1317 405.653 67.0384C405.716 66.9918 405.764 66.9562 405.797 66.9321C405.813 66.92 405.826 66.9109 405.834 66.9047C405.838 66.9016 405.842 66.8992 405.844 66.8976C405.845 66.8968 405.846 66.8962 405.846 66.8958C405.847 66.8956 405.847 66.8954 405.847 66.8953C405.847 66.8951 405.847 66.895 406.265 67.4657ZM398.377 95.7087L397.944 95.1495C400.485 93.1806 402.847 89.5825 404.595 86.3956C405.462 84.816 406.164 83.3628 406.65 82.3046C406.892 81.7758 407.08 81.3464 407.208 81.05C407.271 80.9019 407.32 80.787 407.352 80.7097C407.368 80.671 407.38 80.6418 407.388 80.6224C407.392 80.6127 407.395 80.6055 407.397 80.6009C407.398 80.5985 407.398 80.5969 407.399 80.5958C407.399 80.5953 407.399 80.5949 407.399 80.5947C407.399 80.5946 407.399 80.5946 407.399 80.5945C407.399 80.5946 407.399 80.5946 408.055 80.8604C408.71 81.1262 408.71 81.1264 408.71 81.1266C408.71 81.1267 408.71 81.1269 408.71 81.1271C408.71 81.1276 408.71 81.1282 408.709 81.129C408.709 81.1305 408.708 81.1327 408.707 81.1355C408.704 81.1412 408.701 81.1495 408.696 81.1602C408.688 81.1816 408.675 81.2131 408.658 81.2539C408.624 81.3356 408.573 81.4551 408.508 81.608C408.376 81.914 408.183 82.3542 407.935 82.8947C407.439 83.9753 406.722 85.4598 405.835 87.076C404.077 90.2807 401.6 94.1067 398.81 96.2679L398.377 95.7087ZM387.245 86.528L387.919 86.742C387.389 88.412 387.031 89.64 386.828 90.5875C386.624 91.5386 386.589 92.1492 386.662 92.6027C386.73 93.0294 386.902 93.367 387.225 93.7598C387.572 94.1818 388.046 94.6141 388.725 95.27L388.234 95.7789L387.743 96.2878C387.115 95.682 386.547 95.1628 386.132 94.6584C385.693 94.1247 385.383 93.5609 385.265 92.826C385.152 92.1179 385.227 91.3068 385.445 90.2908C385.664 89.2713 386.04 87.987 386.57 86.3141L387.245 86.528ZM388.234 95.7789L388.725 95.27C391.248 97.7056 395 97.4298 397.944 95.1495L398.377 95.7087L398.81 96.2679C395.491 98.8395 390.92 99.3543 387.743 96.2878L388.234 95.7789Z" fill="black"/>
<mask id="path-84-inside-4_94_1127" fill="white">
<path d="M403.233 16.9512C389.014 16.9513 377.486 28.5421 377.486 42.8398C377.486 44.8457 377.714 46.7981 378.144 48.6729C377.337 50.5799 376.143 52.1394 374.371 52.5312C372.249 53.0002 369.575 51.1551 367.315 49.0381C364.979 46.8488 360.948 47.2389 359.555 50.1221L358.541 52.2207C357.915 53.5168 357.987 55.0397 358.819 56.2139C360.848 59.0742 365.13 64.475 370.552 67.7383C376.026 71.0328 387.746 68.6216 393.95 66.9922C396.83 68.1122 399.96 68.7285 403.233 68.7285C417.453 68.7285 428.98 57.1377 428.98 42.8398C428.98 28.542 417.453 16.9512 403.233 16.9512Z"/>
</mask>
<path d="M403.233 16.9512C389.014 16.9513 377.486 28.5421 377.486 42.8398C377.486 44.8457 377.714 46.7981 378.144 48.6729C377.337 50.5799 376.143 52.1394 374.371 52.5312C372.249 53.0002 369.575 51.1551 367.315 49.0381C364.979 46.8488 360.948 47.2389 359.555 50.1221L358.541 52.2207C357.915 53.5168 357.987 55.0397 358.819 56.2139C360.848 59.0742 365.13 64.475 370.552 67.7383C376.026 71.0328 387.746 68.6216 393.95 66.9922C396.83 68.1122 399.96 68.7285 403.233 68.7285C417.453 68.7285 428.98 57.1377 428.98 42.8398C428.98 28.542 417.453 16.9512 403.233 16.9512Z" fill="#D9D9D9"/>
<path d="M403.233 16.9512L403.233 15.5365H403.233V16.9512ZM377.486 42.8398L376.072 42.8398L376.072 42.8398L377.486 42.8398ZM378.144 48.6729L379.523 48.357L379.625 48.8028L379.446 49.2241L378.144 48.6729ZM374.371 52.5312L374.677 53.9126L374.676 53.9126L374.371 52.5312ZM367.315 49.0381L366.348 50.0705L366.348 50.0705L367.315 49.0381ZM359.555 50.1221L358.281 49.5068L358.281 49.5065L359.555 50.1221ZM358.541 52.2207L359.815 52.836L359.815 52.8362L358.541 52.2207ZM358.819 56.2139L357.665 57.0323L357.665 57.0323L358.819 56.2139ZM370.552 67.7383L369.822 68.9504L369.822 68.9504L370.552 67.7383ZM393.95 66.9922L393.591 65.6239L394.035 65.5073L394.463 65.6737L393.95 66.9922ZM403.233 68.7285L403.233 70.1432L403.233 70.1432L403.233 68.7285ZM428.98 42.8398L430.395 42.8398V42.8398H428.98ZM403.233 16.9512L403.233 18.3658C389.802 18.366 378.901 29.3161 378.901 42.8398L377.486 42.8398L376.072 42.8398C376.072 27.7681 388.225 15.5367 403.233 15.5365L403.233 16.9512ZM377.486 42.8398H378.901C378.901 44.7382 379.117 46.5847 379.523 48.357L378.144 48.6729L376.765 48.9887C376.312 47.0115 376.072 44.9532 376.072 42.8398H377.486ZM378.144 48.6729L379.446 49.2241C378.587 51.2558 377.138 53.3683 374.677 53.9126L374.371 52.5312L374.066 51.1499C375.148 50.9105 376.087 49.9039 376.841 48.1217L378.144 48.6729ZM374.371 52.5312L374.676 53.9126C373.12 54.2565 371.546 53.7256 370.214 52.9947C368.852 52.2469 367.52 51.168 366.348 50.0705L367.315 49.0381L368.283 48.0057C369.371 49.0252 370.506 49.9273 371.575 50.5141C372.676 51.1178 373.5 51.2749 374.066 51.1499L374.371 52.5312ZM367.315 49.0381L366.348 50.0705C364.566 48.4012 361.726 48.8805 360.828 50.7376L359.555 50.1221L358.281 49.5065C360.17 45.5973 365.391 45.2963 368.283 48.0057L367.315 49.0381ZM359.555 50.1221L360.829 50.7374L359.815 52.836L358.541 52.2207L357.267 51.6054L358.281 49.5068L359.555 50.1221ZM358.541 52.2207L359.815 52.8362C359.393 53.7083 359.464 54.6769 359.973 55.3955L358.819 56.2139L357.665 57.0323C356.51 55.4026 356.436 53.3253 357.267 51.6052L358.541 52.2207ZM358.819 56.2139L359.973 55.3955C361.973 58.2152 366.117 63.4182 371.281 66.5262L370.552 67.7383L369.822 68.9504C364.142 65.5319 359.723 59.9333 357.665 57.0323L358.819 56.2139ZM370.552 67.7383L371.281 66.5262C373.596 67.9195 377.483 68.1954 381.85 67.8027C386.128 67.4182 390.523 66.4297 393.591 65.6239L393.95 66.9922L394.31 68.3605C391.173 69.1841 386.606 70.216 382.104 70.6207C377.692 71.0174 372.981 70.8516 369.822 68.9504L370.552 67.7383ZM393.95 66.9922L394.463 65.6737C397.183 66.7314 400.139 67.3138 403.233 67.3138L403.233 68.7285L403.233 70.1432C399.781 70.1432 396.478 69.493 393.437 68.3107L393.95 66.9922ZM403.233 68.7285V67.3138C416.665 67.3138 427.566 56.3637 427.566 42.8398H428.98H430.395C430.395 57.9117 418.242 70.1432 403.233 70.1432V68.7285ZM428.98 42.8398L427.566 42.8398C427.566 29.316 416.665 18.3658 403.233 18.3658V16.9512V15.5365C418.242 15.5365 430.395 27.768 430.395 42.8398L428.98 42.8398Z" fill="black" mask="url(#path-84-inside-4_94_1127)"/>
<path d="M433.302 36.9307L433.306 36.8926C434.175 28.9316 432.482 22.8564 429.858 18.7939C427.218 14.7065 423.683 12.7071 420.853 12.707C418.039 12.707 414.775 14.6919 412.867 18.7227C410.967 22.7368 410.428 28.7807 413.175 36.7383C414.578 40.8053 415.653 44.6866 416.61 48.167C417.571 51.6596 418.409 54.7253 419.346 57.2139C420.288 59.7163 421.292 61.5239 422.524 62.5791C423.701 63.5863 425.15 63.9623 427.186 63.4453L427.271 63.4238H427.36C430.663 63.4238 432.539 62.5832 433.615 61.2959C434.713 59.9817 435.118 58.041 435.097 55.5225C435.075 53.0128 434.636 50.0872 434.189 46.8984C433.747 43.7331 433.302 40.3347 433.302 36.9688V36.9307Z" fill="#D9D9D9" stroke="black" stroke-width="1.41468"/>
<ellipse cx="2.75862" cy="3.60743" rx="2.75862" ry="3.60743" transform="matrix(-1 0 0 1 396.309 42.416)" fill="black"/>
<rect width="1.13174" height="1.41468" rx="0.565871" transform="matrix(-1 0 0 1 394.469 43.9717)" fill="white"/>
<path d="M399.719 63.3093C399.719 63.3093 398.622 64.8882 397.594 65.4796C396.396 66.1684 394.128 66.1869 394.128 66.1869" stroke="black" stroke-width="1.41468" stroke-linecap="round"/>
<circle cx="2.82935" cy="2.82935" r="2.82935" transform="matrix(-1 0 0 1 434.641 111.877)" fill="#C6C2C2"/>
<circle cx="2.82935" cy="2.82935" r="2.82935" transform="matrix(-1 0 0 1 425.727 119.94)" fill="#C6C2C2"/>
<circle cx="2.82935" cy="2.82935" r="2.82935" transform="matrix(-1 0 0 1 411.016 119.657)" fill="#C6C2C2"/>
<circle cx="2.82935" cy="2.82935" r="2.82935" transform="matrix(-1 0 0 1 397.859 121.354)" fill="#C6C2C2"/>
<circle cx="2.82935" cy="2.82935" r="2.82935" transform="matrix(-1 0 0 1 403.945 131.965)" fill="#C6C2C2"/>
<circle cx="2.82935" cy="2.82935" r="2.82935" transform="matrix(-1 0 0 1 406.91 108.057)" fill="#C6C2C2"/>
<circle cx="2.82935" cy="2.82935" r="2.82935" transform="matrix(-1 0 0 1 419.078 110.745)" fill="#C6C2C2"/>
<circle cx="2.82935" cy="2.82935" r="2.82935" transform="matrix(-1 0 0 1 423.039 98.7197)" fill="#C6C2C2"/>
<circle cx="2.82935" cy="2.82935" r="2.82935" transform="matrix(-1 0 0 1 423.184 86.6953)" fill="#C6C2C2"/>
<circle cx="2.82935" cy="2.82935" r="2.82935" transform="matrix(-1 0 0 1 393.047 110.32)" fill="#C6C2C2"/>
<circle cx="2.82935" cy="2.82935" r="2.82935" transform="matrix(-1 0 0 1 384.84 114.706)" fill="#C6C2C2"/>
</svg>
